<?xml version="1.0" encoding="utf-8" standalone="no"?>
<!DOCTYPE svg PUBLIC "-//W3C//DTD SVG 1.1//EN"
  "http://www.w3.org/Graphics/SVG/1.1/DTD/svg11.dtd">
<svg xmlns:xlink="http://www.w3.org/1999/xlink" width="898.048239pt" height="411.927187pt" viewBox="0 0 898.048239 411.927187" xmlns="http://www.w3.org/2000/svg" version="1.1">
 <metadata>
  <rdf:RDF xmlns:dc="http://purl.org/dc/elements/1.1/" xmlns:cc="http://creativecommons.org/ns#" xmlns:rdf="http://www.w3.org/1999/02/22-rdf-syntax-ns#">
   <cc:Work>
    <dc:type rdf:resource="http://purl.org/dc/dcmitype/StillImage"/>
    <dc:date>2026-07-28T15:46:39.695465</dc:date>
    <dc:format>image/svg+xml</dc:format>
    <dc:creator>
     <cc:Agent>
      <dc:title>Matplotlib v3.10.3, https://matplotlib.org/</dc:title>
     </cc:Agent>
    </dc:creator>
   </cc:Work>
  </rdf:RDF>
 </metadata>
 <defs>
  <style type="text/css">*{stroke-linejoin: round; stroke-linecap: butt}</style>
 </defs>
 <g id="figure_1">
  <g id="patch_1">
   <path d="M 0 411.927187 
L 898.048239 411.927187 
L 898.048239 0 
L 0 0 
z
" style="fill: #ffffff"/>
  </g>
  <g id="axes_1">
   <g id="patch_2">
    <path d="M 339.68875 232.2 
C 339.68875 212.102971 335.730074 192.201361 328.039274 173.634128 
C 320.348474 155.066894 309.075117 138.195123 294.864372 123.984378 
C 280.653627 109.773633 263.781856 98.500276 245.214622 90.809476 
C 226.647389 83.118676 206.745779 79.16 186.64875 79.16 
C 166.551721 79.16 146.650111 83.118676 128.082878 90.809476 
C 109.515644 98.500276 92.643873 109.773633 78.433128 123.984378 
C 64.222383 138.195123 52.949026 155.066894 45.258226 173.634128 
C 37.567426 192.201361 33.60875 212.102971 33.60875 232.2 
C 33.60875 252.297029 37.567426 272.198639 45.258226 290.765872 
C 52.949026 309.333106 64.222383 326.204877 78.433128 340.415622 
C 92.643873 354.626367 109.515644 365.899724 128.082878 373.590524 
C 146.650111 381.281324 166.551721 385.24 186.64875 385.24 
C 206.745779 385.24 226.647389 381.281324 245.214622 373.590524 
C 263.781856 365.899724 280.653627 354.626367 294.864372 340.415622 
C 309.075117 326.204877 320.348474 309.333106 328.039274 290.765872 
C 335.730074 272.198639 339.68875 252.297029 339.68875 232.2 
M 186.64875 232.2 
C 186.64875 232.2 186.64875 232.2 186.64875 232.2 
C 186.64875 232.2 186.64875 232.2 186.64875 232.2 
C 186.64875 232.2 186.64875 232.2 186.64875 232.2 
C 186.64875 232.2 186.64875 232.2 186.64875 232.2 
C 186.64875 232.2 186.64875 232.2 186.64875 232.2 
C 186.64875 232.2 186.64875 232.2 186.64875 232.2 
C 186.64875 232.2 186.64875 232.2 186.64875 232.2 
C 186.64875 232.2 186.64875 232.2 186.64875 232.2 
C 186.64875 232.2 186.64875 232.2 186.64875 232.2 
C 186.64875 232.2 186.64875 232.2 186.64875 232.2 
C 186.64875 232.2 186.64875 232.2 186.64875 232.2 
C 186.64875 232.2 186.64875 232.2 186.64875 232.2 
C 186.64875 232.2 186.64875 232.2 186.64875 232.2 
C 186.64875 232.2 186.64875 232.2 186.64875 232.2 
C 186.64875 232.2 186.64875 232.2 186.64875 232.2 
C 186.64875 232.2 186.64875 232.2 186.64875 232.2 
z
" style="fill: #ffffff"/>
   </g>
   <g id="patch_3">
    <path d="M 186.64875 232.2 
C 186.64875 232.2 186.64875 232.2 186.64875 232.2 
C 186.64875 232.2 186.64875 232.2 186.64875 232.2 
L 114.139225 258.591309 
C 112.602867 254.3702 111.438034 250.022985 110.658005 245.599219 
C 109.877975 241.175453 109.485725 236.69201 109.485725 232.2 
z
" clip-path="url(#p685ed1441b)" style="fill: #008000; opacity: 0.5"/>
   </g>
   <g id="patch_4">
    <path d="M 186.64875 232.2 
C 186.64875 232.2 186.64875 232.2 186.64875 232.2 
C 186.64875 232.2 186.64875 232.2 186.64875 232.2 
L 173.513126 243.222097 
C 172.87148 242.457413 172.297831 241.638157 171.798719 240.773669 
C 171.299607 239.909182 170.876935 239.002759 170.535522 238.064735 
z
" clip-path="url(#p685ed1441b)" style="fill: #008000; opacity: 0.5"/>
   </g>
   <g id="patch_5">
    <path d="M 186.64875 232.2 
C 186.64875 232.2 186.64875 232.2 186.64875 232.2 
C 186.64875 232.2 186.64875 232.2 186.64875 232.2 
L 182.361915 239.625016 
C 181.929671 239.375459 181.520044 239.088635 181.137701 238.767812 
C 180.755359 238.446989 180.401761 238.093391 180.080938 237.711049 
z
" clip-path="url(#p685ed1441b)" style="fill: #008000; opacity: 0.5"/>
   </g>
   <g id="patch_6">
    <path d="M 186.64875 232.2 
C 186.64875 232.2 186.64875 232.2 186.64875 232.2 
C 186.64875 232.2 186.64875 232.2 186.64875 232.2 
L 186.64875 232.2 
C 186.64875 232.2 186.64875 232.2 186.64875 232.2 
C 186.64875 232.2 186.64875 232.2 186.64875 232.2 
z
" clip-path="url(#p685ed1441b)" style="fill: #008000; opacity: 0.5"/>
   </g>
   <g id="patch_7">
    <path d="M 186.64875 232.2 
C 186.64875 232.2 186.64875 232.2 186.64875 232.2 
C 186.64875 232.2 186.64875 232.2 186.64875 232.2 
L 186.64875 232.2 
C 186.64875 232.2 186.64875 232.2 186.64875 232.2 
C 186.64875 232.2 186.64875 232.2 186.64875 232.2 
z
" clip-path="url(#p685ed1441b)" style="fill: #008000; opacity: 0.5"/>
   </g>
   <g id="patch_8">
    <path d="M 186.64875 232.2 
C 186.64875 232.2 186.64875 232.2 186.64875 232.2 
C 186.64875 232.2 186.64875 232.2 186.64875 232.2 
L 190.935585 239.625016 
C 190.503341 239.874572 190.05013 240.085908 189.581118 240.256614 
C 189.112106 240.42732 188.629082 240.556746 188.137552 240.643416 
z
" clip-path="url(#p685ed1441b)" style="fill: #008000; opacity: 0.5"/>
   </g>
   <g id="patch_9">
    <path d="M 186.64875 232.2 
C 186.64875 232.2 186.64875 232.2 186.64875 232.2 
C 186.64875 232.2 186.64875 232.2 186.64875 232.2 
L 193.216562 237.711049 
C 192.895739 238.093391 192.542141 238.446989 192.159799 238.767812 
C 191.777456 239.088635 191.367829 239.375459 190.935585 239.625016 
z
" clip-path="url(#p685ed1441b)" style="fill: #008000; opacity: 0.5"/>
   </g>
   <g id="patch_10">
    <path d="M 186.64875 232.2 
C 186.64875 232.2 186.64875 232.2 186.64875 232.2 
C 186.64875 232.2 186.64875 232.2 186.64875 232.2 
L 210.818592 240.997103 
C 210.306473 242.404139 209.672465 243.763773 208.923797 245.060504 
C 208.175128 246.357236 207.314655 247.586119 206.352186 248.733146 
z
" clip-path="url(#p685ed1441b)" style="fill: #008000; opacity: 0.5"/>
   </g>
   <g id="patch_11">
    <path d="M 186.64875 232.2 
C 186.64875 232.2 186.64875 232.2 186.64875 232.2 
C 186.64875 232.2 186.64875 232.2 186.64875 232.2 
L 332.401131 232.2 
C 332.401131 240.684907 331.660214 249.153633 330.186825 257.509635 
C 328.713436 265.865638 326.513196 274.077045 323.611187 282.05025 
z
" clip-path="url(#p685ed1441b)" style="fill: #008000; opacity: 0.5"/>
   </g>
   <g id="patch_12">
    <path d="M 186.64875 232.2 
C 186.64875 232.2 186.64875 232.2 186.64875 232.2 
C 186.64875 232.2 186.64875 232.2 186.64875 232.2 
L 283.328117 197.011588 
C 285.376594 202.639733 286.929705 208.43602 287.969744 214.334375 
C 289.009783 220.23273 289.532784 226.210654 289.532784 232.2 
z
" clip-path="url(#p685ed1441b)" style="fill: #008000; opacity: 0.5"/>
   </g>
   <g id="patch_13">
    <path d="M 186.64875 232.2 
C 186.64875 232.2 186.64875 232.2 186.64875 232.2 
C 186.64875 232.2 186.64875 232.2 186.64875 232.2 
L 193.216562 226.688951 
C 193.537385 227.071294 193.824209 227.480921 194.073766 227.913165 
C 194.323322 228.345409 194.534658 228.79862 194.705364 229.267632 
z
" clip-path="url(#p685ed1441b)" style="fill: #008000; opacity: 0.5"/>
   </g>
   <g id="patch_14">
    <path d="M 186.64875 232.2 
C 186.64875 232.2 186.64875 232.2 186.64875 232.2 
C 186.64875 232.2 186.64875 232.2 186.64875 232.2 
L 195.222419 217.349969 
C 196.086907 217.849081 196.906163 218.42273 197.670847 219.064376 
C 198.435531 219.706023 199.142727 220.413219 199.784374 221.177903 
z
" clip-path="url(#p685ed1441b)" style="fill: #008000; opacity: 0.5"/>
   </g>
   <g id="patch_15">
    <path d="M 186.64875 232.2 
C 186.64875 232.2 186.64875 232.2 186.64875 232.2 
C 186.64875 232.2 186.64875 232.2 186.64875 232.2 
L 186.64875 232.2 
C 186.64875 232.2 186.64875 232.2 186.64875 232.2 
C 186.64875 232.2 186.64875 232.2 186.64875 232.2 
z
" clip-path="url(#p685ed1441b)" style="fill: #008000; opacity: 0.5"/>
   </g>
   <g id="patch_16">
    <path d="M 186.64875 232.2 
C 186.64875 232.2 186.64875 232.2 186.64875 232.2 
C 186.64875 232.2 186.64875 232.2 186.64875 232.2 
L 186.64875 232.2 
C 186.64875 232.2 186.64875 232.2 186.64875 232.2 
C 186.64875 232.2 186.64875 232.2 186.64875 232.2 
z
" clip-path="url(#p685ed1441b)" style="fill: #008000; opacity: 0.5"/>
   </g>
   <g id="patch_17">
    <path d="M 186.64875 232.2 
C 186.64875 232.2 186.64875 232.2 186.64875 232.2 
C 186.64875 232.2 186.64875 232.2 186.64875 232.2 
L 186.64875 232.2 
C 186.64875 232.2 186.64875 232.2 186.64875 232.2 
C 186.64875 232.2 186.64875 232.2 186.64875 232.2 
z
" clip-path="url(#p685ed1441b)" style="fill: #008000; opacity: 0.5"/>
   </g>
   <g id="patch_18">
    <path d="M 186.64875 232.2 
C 186.64875 232.2 186.64875 232.2 186.64875 232.2 
C 186.64875 232.2 186.64875 232.2 186.64875 232.2 
L 186.64875 232.2 
C 186.64875 232.2 186.64875 232.2 186.64875 232.2 
C 186.64875 232.2 186.64875 232.2 186.64875 232.2 
z
" clip-path="url(#p685ed1441b)" style="fill: #008000; opacity: 0.5"/>
   </g>
   <g id="patch_19">
    <path d="M 186.64875 232.2 
C 186.64875 232.2 186.64875 232.2 186.64875 232.2 
C 186.64875 232.2 186.64875 232.2 186.64875 232.2 
L 178.592136 229.267632 
C 178.762842 228.79862 178.974178 228.345409 179.223734 227.913165 
C 179.473291 227.480921 179.760115 227.071294 180.080938 226.688951 
z
" clip-path="url(#p685ed1441b)" style="fill: #008000; opacity: 0.5"/>
   </g>
   <g id="patch_20">
    <path d="M 186.64875 232.2 
C 186.64875 232.2 186.64875 232.2 186.64875 232.2 
C 186.64875 232.2 186.64875 232.2 186.64875 232.2 
L 143.780403 232.2 
C 143.780403 229.704439 143.99832 227.213637 144.431669 224.75599 
C 144.865019 222.298342 145.512148 219.883222 146.36568 217.538162 
z
" clip-path="url(#p685ed1441b)" style="fill: #008000; opacity: 0.5"/>
   </g>
   <g id="FillBetweenPolyCollection_1">
    <defs>
     <path id="m21c9fab667" d="M 306.042111 -96.127056 
L 186.64875 -179.727187 
L 186.64875 -179.727187 
L 186.64875 -179.727187 
L 186.64875 -179.727187 
L 186.64875 -179.727187 
L 186.64875 -179.727187 
L 186.64875 -179.727187 
L 186.64875 -179.727187 
L 186.64875 -179.727187 
L 186.64875 -179.727187 
L 186.64875 -179.727187 
L 186.64875 -179.727187 
L 186.64875 -179.727187 
L 186.64875 -179.727187 
L 186.64875 -179.727187 
L 186.64875 -179.727187 
L 186.64875 -179.727187 
L 186.64875 -179.727187 
L 186.64875 -179.727187 
L 186.64875 -179.727187 
L 186.64875 -179.727187 
L 186.64875 -179.727187 
L 186.64875 -179.727187 
L 186.64875 -179.727187 
L 186.64875 -179.727187 
L 186.64875 -179.727187 
L 186.64875 -179.727187 
L 186.64875 -179.727187 
L 186.64875 -179.727187 
L 186.64875 -179.727187 
L 186.64875 -179.727187 
L 186.64875 -179.727187 
L 186.64875 -179.727187 
L 186.64875 -179.727187 
L 186.64875 -179.727187 
L 186.64875 -179.727187 
L 186.64875 -179.727187 
L 186.64875 -179.727187 
L 186.64875 -179.727187 
L 186.64875 -179.727187 
L 186.64875 -179.727187 
L 186.64875 -179.727187 
L 186.64875 -179.727187 
L 186.64875 -179.727187 
L 186.64875 -179.727187 
L 186.64875 -179.727187 
L 186.64875 -179.727187 
L 186.64875 -179.727187 
L 186.64875 -179.727187 
L 186.64875 -179.727187 
L 186.64875 -179.727187 
L 186.64875 -179.727187 
L 186.64875 -179.727187 
L 186.64875 -179.727187 
L 186.64875 -179.727187 
L 186.64875 -179.727187 
L 186.64875 -179.727187 
L 186.64875 -179.727187 
L 186.64875 -179.727187 
L 186.64875 -179.727187 
L 186.64875 -179.727187 
L 186.64875 -179.727187 
L 186.64875 -179.727187 
L 186.64875 -179.727187 
L 186.64875 -179.727187 
L 186.64875 -179.727187 
L 186.64875 -179.727187 
L 186.64875 -179.727187 
L 186.64875 -179.727187 
L 186.64875 -179.727187 
L 307.48295 -261.230885 
L 307.48295 -261.230885 
L 308.886982 -259.109624 
L 310.253779 -256.964182 
L 311.582925 -254.795213 
L 312.874015 -252.603378 
L 314.126655 -250.389344 
L 315.340464 -248.153786 
L 316.515072 -245.897384 
L 317.650122 -243.620826 
L 318.745268 -241.324805 
L 319.800176 -239.010022 
L 320.814524 -236.67718 
L 321.788004 -234.32699 
L 322.72032 -231.960169 
L 323.611187 -229.577438 
L 324.460334 -227.179521 
L 325.267502 -224.76715 
L 326.032445 -222.34106 
L 326.754931 -219.901988 
L 327.434739 -217.45068 
L 328.071662 -214.98788 
L 328.665507 -212.514339 
L 329.216092 -210.030811 
L 329.723249 -207.538053 
L 330.186825 -205.036823 
L 330.606677 -202.527883 
L 330.982679 -200.011998 
L 331.314715 -197.489934 
L 331.602684 -194.96246 
L 331.846499 -192.430345 
L 332.046085 -189.89436 
L 332.201382 -187.355278 
L 332.312343 -184.813872 
L 332.378932 -182.270917 
L 332.401131 -179.727187 
L 332.378932 -177.183458 
L 332.312343 -174.640503 
L 332.201382 -172.099097 
L 332.046085 -169.560015 
L 331.846499 -167.02403 
L 331.602684 -164.491915 
L 331.314715 -161.964441 
L 330.982679 -159.442377 
L 330.606677 -156.926492 
L 330.186825 -154.417552 
L 329.723249 -151.916322 
L 329.216092 -149.423564 
L 328.665507 -146.940036 
L 328.071662 -144.466495 
L 327.434739 -142.003695 
L 326.754931 -139.552387 
L 326.032445 -137.113315 
L 325.267502 -134.687225 
L 324.460334 -132.274854 
L 323.611187 -129.876937 
L 322.72032 -127.494206 
L 321.788004 -125.127385 
L 320.814524 -122.777195 
L 319.800176 -120.444353 
L 318.745268 -118.12957 
L 317.650122 -115.833549 
L 316.515072 -113.556991 
L 315.340464 -111.300589 
L 314.126655 -109.065031 
L 312.874015 -106.850997 
L 311.582925 -104.659162 
L 310.253779 -102.490193 
L 308.886982 -100.344751 
L 307.48295 -98.22349 
L 306.042111 -96.127056 
z
" style="stroke: #ffff00; stroke-opacity: 0.15"/>
    </defs>
    <g clip-path="url(#p685ed1441b)">
     <use xlink:href="#m21c9fab667" x="0" y="411.927187" style="fill: #ffff00; fill-opacity: 0.15; stroke: #ffff00; stroke-opacity: 0.15"/>
    </g>
   </g>
   <g id="matplotlib.axis_1">
    <g id="xtick_1">
     <g id="line2d_1">
      <path d="M 186.64875 232.2 
L 339.68875 232.2 
" clip-path="url(#p685ed1441b)" style="fill: none; stroke: #b0b0b0; stroke-width: 0.8; stroke-linecap: square"/>
     </g>
     <g id="text_1">
      <!-- 0° -->
      <g transform="translate(347.953125 235.302188) scale(0.12 -0.12)">
       <defs>
        <path id="ArialMT-30" d="M 266 2259 
Q 266 3072 433 3567 
Q 600 4063 929 4331 
Q 1259 4600 1759 4600 
Q 2128 4600 2406 4451 
Q 2684 4303 2865 4023 
Q 3047 3744 3150 3342 
Q 3253 2941 3253 2259 
Q 3253 1453 3087 958 
Q 2922 463 2592 192 
Q 2263 -78 1759 -78 
Q 1097 -78 719 397 
Q 266 969 266 2259 
z
M 844 2259 
Q 844 1131 1108 757 
Q 1372 384 1759 384 
Q 2147 384 2411 759 
Q 2675 1134 2675 2259 
Q 2675 3391 2411 3762 
Q 2147 4134 1753 4134 
Q 1366 4134 1134 3806 
Q 844 3388 844 2259 
z
" transform="scale(0.015625)"/>
        <path id="ArialMT-b0" d="M 400 3794 
Q 400 4153 654 4406 
Q 909 4659 1266 4659 
Q 1628 4659 1881 4406 
Q 2134 4153 2134 3794 
Q 2134 3434 1879 3179 
Q 1625 2925 1266 2925 
Q 909 2925 654 3178 
Q 400 3431 400 3794 
z
M 741 3794 
Q 741 3575 895 3420 
Q 1050 3266 1269 3266 
Q 1484 3266 1639 3420 
Q 1794 3575 1794 3794 
Q 1794 4013 1639 4167 
Q 1484 4322 1269 4322 
Q 1050 4322 895 4167 
Q 741 4013 741 3794 
z
" transform="scale(0.015625)"/>
       </defs>
       <use xlink:href="#ArialMT-30"/>
       <use xlink:href="#ArialMT-b0" transform="translate(55.615234 0)"/>
      </g>
     </g>
    </g>
    <g id="xtick_2">
     <g id="line2d_2">
      <path d="M 186.64875 232.2 
L 186.64875 79.16 
" clip-path="url(#p685ed1441b)" style="fill: none; stroke: #b0b0b0; stroke-width: 0.8; stroke-linecap: square"/>
     </g>
     <g id="text_2">
      <!-- 90° -->
      <g transform="translate(177.576563 68.262188) scale(0.12 -0.12)">
       <defs>
        <path id="ArialMT-39" d="M 350 1059 
L 891 1109 
Q 959 728 1153 556 
Q 1347 384 1650 384 
Q 1909 384 2104 503 
Q 2300 622 2425 820 
Q 2550 1019 2634 1356 
Q 2719 1694 2719 2044 
Q 2719 2081 2716 2156 
Q 2547 1888 2255 1720 
Q 1963 1553 1622 1553 
Q 1053 1553 659 1965 
Q 266 2378 266 3053 
Q 266 3750 677 4175 
Q 1088 4600 1706 4600 
Q 2153 4600 2523 4359 
Q 2894 4119 3086 3673 
Q 3278 3228 3278 2384 
Q 3278 1506 3087 986 
Q 2897 466 2520 194 
Q 2144 -78 1638 -78 
Q 1100 -78 759 220 
Q 419 519 350 1059 
z
M 2653 3081 
Q 2653 3566 2395 3850 
Q 2138 4134 1775 4134 
Q 1400 4134 1122 3828 
Q 844 3522 844 3034 
Q 844 2597 1108 2323 
Q 1372 2050 1759 2050 
Q 2150 2050 2401 2323 
Q 2653 2597 2653 3081 
z
" transform="scale(0.015625)"/>
       </defs>
       <use xlink:href="#ArialMT-39"/>
       <use xlink:href="#ArialMT-30" transform="translate(55.615234 0)"/>
       <use xlink:href="#ArialMT-b0" transform="translate(111.230469 0)"/>
      </g>
     </g>
    </g>
    <g id="xtick_3">
     <g id="line2d_3">
      <path d="M 186.64875 232.2 
L 33.60875 232.2 
" clip-path="url(#p685ed1441b)" style="fill: none; stroke: #b0b0b0; stroke-width: 0.8; stroke-linecap: square"/>
     </g>
     <g id="text_3">
      <!-- 180° -->
      <g transform="translate(7.2 235.302187) scale(0.12 -0.12)">
       <defs>
        <path id="ArialMT-31" d="M 2384 0 
L 1822 0 
L 1822 3584 
Q 1619 3391 1289 3197 
Q 959 3003 697 2906 
L 697 3450 
Q 1169 3672 1522 3987 
Q 1875 4303 2022 4600 
L 2384 4600 
L 2384 0 
z
" transform="scale(0.015625)"/>
        <path id="ArialMT-38" d="M 1131 2484 
Q 781 2613 612 2850 
Q 444 3088 444 3419 
Q 444 3919 803 4259 
Q 1163 4600 1759 4600 
Q 2359 4600 2725 4251 
Q 3091 3903 3091 3403 
Q 3091 3084 2923 2848 
Q 2756 2613 2416 2484 
Q 2838 2347 3058 2040 
Q 3278 1734 3278 1309 
Q 3278 722 2862 322 
Q 2447 -78 1769 -78 
Q 1091 -78 675 323 
Q 259 725 259 1325 
Q 259 1772 486 2073 
Q 713 2375 1131 2484 
z
M 1019 3438 
Q 1019 3113 1228 2906 
Q 1438 2700 1772 2700 
Q 2097 2700 2305 2904 
Q 2513 3109 2513 3406 
Q 2513 3716 2298 3927 
Q 2084 4138 1766 4138 
Q 1444 4138 1231 3931 
Q 1019 3725 1019 3438 
z
M 838 1322 
Q 838 1081 952 856 
Q 1066 631 1291 507 
Q 1516 384 1775 384 
Q 2178 384 2440 643 
Q 2703 903 2703 1303 
Q 2703 1709 2433 1975 
Q 2163 2241 1756 2241 
Q 1359 2241 1098 1978 
Q 838 1716 838 1322 
z
" transform="scale(0.015625)"/>
       </defs>
       <use xlink:href="#ArialMT-31"/>
       <use xlink:href="#ArialMT-38" transform="translate(55.615234 0)"/>
       <use xlink:href="#ArialMT-30" transform="translate(111.230469 0)"/>
       <use xlink:href="#ArialMT-b0" transform="translate(166.845703 0)"/>
      </g>
     </g>
    </g>
    <g id="xtick_4">
     <g id="line2d_4">
      <path d="M 186.64875 232.2 
L 186.64875 385.24 
" clip-path="url(#p685ed1441b)" style="fill: none; stroke: #b0b0b0; stroke-width: 0.8; stroke-linecap: square"/>
     </g>
     <g id="text_4">
      <!-- 270° -->
      <g transform="translate(174.24 402.342187) scale(0.12 -0.12)">
       <defs>
        <path id="ArialMT-32" d="M 3222 541 
L 3222 0 
L 194 0 
Q 188 203 259 391 
Q 375 700 629 1000 
Q 884 1300 1366 1694 
Q 2113 2306 2375 2664 
Q 2638 3022 2638 3341 
Q 2638 3675 2398 3904 
Q 2159 4134 1775 4134 
Q 1369 4134 1125 3890 
Q 881 3647 878 3216 
L 300 3275 
Q 359 3922 746 4261 
Q 1134 4600 1788 4600 
Q 2447 4600 2831 4234 
Q 3216 3869 3216 3328 
Q 3216 3053 3103 2787 
Q 2991 2522 2730 2228 
Q 2469 1934 1863 1422 
Q 1356 997 1212 845 
Q 1069 694 975 541 
L 3222 541 
z
" transform="scale(0.015625)"/>
        <path id="ArialMT-37" d="M 303 3981 
L 303 4522 
L 3269 4522 
L 3269 4084 
Q 2831 3619 2401 2847 
Q 1972 2075 1738 1259 
Q 1569 684 1522 0 
L 944 0 
Q 953 541 1156 1306 
Q 1359 2072 1739 2783 
Q 2119 3494 2547 3981 
L 303 3981 
z
" transform="scale(0.015625)"/>
       </defs>
       <use xlink:href="#ArialMT-32"/>
       <use xlink:href="#ArialMT-37" transform="translate(55.615234 0)"/>
       <use xlink:href="#ArialMT-30" transform="translate(111.230469 0)"/>
       <use xlink:href="#ArialMT-b0" transform="translate(166.845703 0)"/>
      </g>
     </g>
    </g>
   </g>
   <g id="matplotlib.axis_2">
    <g id="ytick_1"/>
    <g id="ytick_2"/>
    <g id="ytick_3"/>
    <g id="ytick_4"/>
    <g id="ytick_5"/>
    <g id="ytick_6"/>
   </g>
   <g id="line2d_5">
    <path d="M 186.64875 232.2 
L 328.970018 263.63904 
" clip-path="url(#p685ed1441b)" style="fill: none; stroke-dasharray: 3.7,1.6; stroke-dashoffset: 0; stroke: #000000"/>
   </g>
   <g id="line2d_6">
    <path d="M 122.321242 232.2 
L 121.140136 234.269043 
L 120.40339 236.388804 
L 120.134255 238.519256 
L 120.345757 240.618556 
L 121.039564 242.644568 
L 122.205382 244.556504 
L 123.820918 246.316601 
L 125.852473 247.891702 
L 128.256126 249.254631 
L 130.979461 250.385261 
L 133.963699 251.2712 
L 137.146126 251.908037 
L 140.462632 252.299156 
L 143.850206 252.455124 
L 147.24924 252.392717 
L 150.605498 252.133668 
L 153.871664 251.703236 
L 157.008398 251.128702 
L 159.984882 250.437902 
L 162.778865 249.657901 
L 167.770429 247.928263 
L 171.952939 246.105441 
L 175.378166 244.301108 
L 178.140843 242.57735 
L 180.345859 240.962154 
L 182.087737 239.467904 
L 183.995208 237.479788 
L 185.227007 235.854821 
L 186.50125 233.894489 
L 186.550409 233.977986 
L 187.778902 237.050564 
L 188.814163 238.655741 
L 190.276828 240.360351 
L 192.281474 242.197705 
L 195.109971 244.363172 
L 197.710487 246.135336 
L 201.149382 248.270537 
L 205.714813 250.819834 
L 211.726206 253.772694 
L 215.373512 255.373386 
L 219.495986 257.029039 
L 224.121871 258.709265 
L 229.270387 260.375717 
L 234.948817 261.982179 
L 241.149494 263.475109 
L 247.846872 264.794718 
L 254.994907 265.876654 
L 262.525015 266.654313 
L 270.344896 267.061738 
L 278.338474 267.037021 
L 286.367212 266.526037 
L 294.272929 265.486289 
L 301.882195 263.890567 
L 309.0122 261.73014 
L 315.477894 259.01713 
L 321.100035 255.785821 
L 325.713665 252.092673 
L 329.176455 248.014922 
L 331.376315 243.647782 
L 332.237698 239.100354 
L 331.726096 234.490512 
L 329.85035 229.939103 
L 326.662572 225.563886 
L 322.255673 221.47365 
L 316.758664 217.76296 
L 310.330096 214.507884 
L 303.150119 211.763003 
L 295.411746 209.559848 
L 287.311932 207.906816 
L 279.04305 206.790469 
L 270.785276 206.178034 
L 262.700283 206.020818 
L 254.926505 206.258232 
L 247.576094 206.822092 
L 240.733538 207.640882 
L 234.455832 208.6437 
L 228.773966 209.763698 
L 223.695461 210.940842 
L 215.281422 213.271913 
L 208.93852 215.35129 
L 202.387682 217.771576 
L 196.97462 220.003132 
L 194.98719 220.985849 
L 193.254394 222.034057 
L 191.719772 223.199278 
L 190.38049 224.473264 
L 189.254938 225.801221 
L 187.994927 227.72252 
L 187.219277 229.346484 
L 186.745002 230.8474 
L 186.599329 232.02569 
L 186.45584 231.783924 
L 185.756108 230.872589 
L 184.664232 229.779424 
L 182.643253 228.162761 
L 180.576021 226.806855 
L 177.80327 225.291652 
L 174.249813 223.719212 
L 169.891971 222.229271 
L 167.421107 221.56618 
L 164.769183 220.986462 
L 161.951624 220.511673 
L 158.98792 220.162631 
L 155.901462 219.958857 
L 152.71937 219.918073 
L 149.472336 220.055731 
L 146.194485 220.384594 
L 142.92325 220.914317 
L 139.699207 221.651045 
L 136.565833 222.596998 
L 133.56911 223.750056 
L 130.756924 225.10336 
L 128.178196 226.644965 
L 125.881724 228.3576 
L 123.914743 230.218591 
L 122.321242 232.2 
L 122.321242 232.2 
" clip-path="url(#p685ed1441b)" style="fill: none; stroke: #006400; stroke-width: 2; stroke-linecap: square"/>
   </g>
   <g id="patch_21">
    <path d="M 339.68875 232.2 
C 339.68875 212.102971 335.730074 192.201361 328.039274 173.634128 
C 320.348474 155.066894 309.075117 138.195123 294.864372 123.984378 
C 280.653627 109.773633 263.781856 98.500276 245.214622 90.809476 
C 226.647389 83.118676 206.745779 79.16 186.64875 79.16 
C 166.551721 79.16 146.650111 83.118676 128.082878 90.809476 
C 109.515644 98.500276 92.643873 109.773633 78.433128 123.984378 
C 64.222383 138.195123 52.949026 155.066894 45.258226 173.634128 
C 37.567426 192.201361 33.60875 212.102971 33.60875 232.2 
C 33.60875 252.297029 37.567426 272.198639 45.258226 290.765872 
C 52.949026 309.333106 64.222383 326.204877 78.433128 340.415622 
C 92.643873 354.626367 109.515644 365.899724 128.082878 373.590524 
C 146.650111 381.281324 166.551721 385.24 186.64875 385.24 
C 206.745779 385.24 226.647389 381.281324 245.214622 373.590524 
C 263.781856 365.899724 280.653627 354.626367 294.864372 340.415622 
C 309.075117 326.204877 320.348474 309.333106 328.039274 290.765872 
C 335.730074 272.198639 339.68875 252.297029 339.68875 232.2 
" style="fill: none; stroke: #000000; stroke-width: 0.8; stroke-linejoin: miter; stroke-linecap: square"/>
   </g>
   <g id="text_5">
    <!-- Saccades in the rewarded direction: 60.0% -->
    <g transform="translate(91.63677 307.249058) scale(0.09996 -0.09996)">
     <defs>
      <path id="ArialMT-53" d="M 288 1472 
L 859 1522 
Q 900 1178 1048 958 
Q 1197 738 1509 602 
Q 1822 466 2213 466 
Q 2559 466 2825 569 
Q 3091 672 3220 851 
Q 3350 1031 3350 1244 
Q 3350 1459 3225 1620 
Q 3100 1781 2813 1891 
Q 2628 1963 1997 2114 
Q 1366 2266 1113 2400 
Q 784 2572 623 2826 
Q 463 3081 463 3397 
Q 463 3744 659 4045 
Q 856 4347 1234 4503 
Q 1613 4659 2075 4659 
Q 2584 4659 2973 4495 
Q 3363 4331 3572 4012 
Q 3781 3694 3797 3291 
L 3216 3247 
Q 3169 3681 2898 3903 
Q 2628 4125 2100 4125 
Q 1550 4125 1298 3923 
Q 1047 3722 1047 3438 
Q 1047 3191 1225 3031 
Q 1400 2872 2139 2705 
Q 2878 2538 3153 2413 
Q 3553 2228 3743 1945 
Q 3934 1663 3934 1294 
Q 3934 928 3725 604 
Q 3516 281 3123 101 
Q 2731 -78 2241 -78 
Q 1619 -78 1198 103 
Q 778 284 539 648 
Q 300 1013 288 1472 
z
" transform="scale(0.015625)"/>
      <path id="ArialMT-61" d="M 2588 409 
Q 2275 144 1986 34 
Q 1697 -75 1366 -75 
Q 819 -75 525 192 
Q 231 459 231 875 
Q 231 1119 342 1320 
Q 453 1522 633 1644 
Q 813 1766 1038 1828 
Q 1203 1872 1538 1913 
Q 2219 1994 2541 2106 
Q 2544 2222 2544 2253 
Q 2544 2597 2384 2738 
Q 2169 2928 1744 2928 
Q 1347 2928 1158 2789 
Q 969 2650 878 2297 
L 328 2372 
Q 403 2725 575 2942 
Q 747 3159 1072 3276 
Q 1397 3394 1825 3394 
Q 2250 3394 2515 3294 
Q 2781 3194 2906 3042 
Q 3031 2891 3081 2659 
Q 3109 2516 3109 2141 
L 3109 1391 
Q 3109 606 3145 398 
Q 3181 191 3288 0 
L 2700 0 
Q 2613 175 2588 409 
z
M 2541 1666 
Q 2234 1541 1622 1453 
Q 1275 1403 1131 1340 
Q 988 1278 909 1158 
Q 831 1038 831 891 
Q 831 666 1001 516 
Q 1172 366 1500 366 
Q 1825 366 2078 508 
Q 2331 650 2450 897 
Q 2541 1088 2541 1459 
L 2541 1666 
z
" transform="scale(0.015625)"/>
      <path id="ArialMT-63" d="M 2588 1216 
L 3141 1144 
Q 3050 572 2676 248 
Q 2303 -75 1759 -75 
Q 1078 -75 664 370 
Q 250 816 250 1647 
Q 250 2184 428 2587 
Q 606 2991 970 3192 
Q 1334 3394 1763 3394 
Q 2303 3394 2647 3120 
Q 2991 2847 3088 2344 
L 2541 2259 
Q 2463 2594 2264 2762 
Q 2066 2931 1784 2931 
Q 1359 2931 1093 2626 
Q 828 2322 828 1663 
Q 828 994 1084 691 
Q 1341 388 1753 388 
Q 2084 388 2306 591 
Q 2528 794 2588 1216 
z
" transform="scale(0.015625)"/>
      <path id="ArialMT-64" d="M 2575 0 
L 2575 419 
Q 2259 -75 1647 -75 
Q 1250 -75 917 144 
Q 584 363 401 755 
Q 219 1147 219 1656 
Q 219 2153 384 2558 
Q 550 2963 881 3178 
Q 1213 3394 1622 3394 
Q 1922 3394 2156 3267 
Q 2391 3141 2538 2938 
L 2538 4581 
L 3097 4581 
L 3097 0 
L 2575 0 
z
M 797 1656 
Q 797 1019 1065 703 
Q 1334 388 1700 388 
Q 2069 388 2326 689 
Q 2584 991 2584 1609 
Q 2584 2291 2321 2609 
Q 2059 2928 1675 2928 
Q 1300 2928 1048 2622 
Q 797 2316 797 1656 
z
" transform="scale(0.015625)"/>
      <path id="ArialMT-65" d="M 2694 1069 
L 3275 997 
Q 3138 488 2766 206 
Q 2394 -75 1816 -75 
Q 1088 -75 661 373 
Q 234 822 234 1631 
Q 234 2469 665 2931 
Q 1097 3394 1784 3394 
Q 2450 3394 2872 2941 
Q 3294 2488 3294 1666 
Q 3294 1616 3291 1516 
L 816 1516 
Q 847 969 1125 678 
Q 1403 388 1819 388 
Q 2128 388 2347 550 
Q 2566 713 2694 1069 
z
M 847 1978 
L 2700 1978 
Q 2663 2397 2488 2606 
Q 2219 2931 1791 2931 
Q 1403 2931 1139 2672 
Q 875 2413 847 1978 
z
" transform="scale(0.015625)"/>
      <path id="ArialMT-73" d="M 197 991 
L 753 1078 
Q 800 744 1014 566 
Q 1228 388 1613 388 
Q 2000 388 2187 545 
Q 2375 703 2375 916 
Q 2375 1106 2209 1216 
Q 2094 1291 1634 1406 
Q 1016 1563 777 1677 
Q 538 1791 414 1992 
Q 291 2194 291 2438 
Q 291 2659 392 2848 
Q 494 3038 669 3163 
Q 800 3259 1026 3326 
Q 1253 3394 1513 3394 
Q 1903 3394 2198 3281 
Q 2494 3169 2634 2976 
Q 2775 2784 2828 2463 
L 2278 2388 
Q 2241 2644 2061 2787 
Q 1881 2931 1553 2931 
Q 1166 2931 1000 2803 
Q 834 2675 834 2503 
Q 834 2394 903 2306 
Q 972 2216 1119 2156 
Q 1203 2125 1616 2013 
Q 2213 1853 2448 1751 
Q 2684 1650 2818 1456 
Q 2953 1263 2953 975 
Q 2953 694 2789 445 
Q 2625 197 2315 61 
Q 2006 -75 1616 -75 
Q 969 -75 630 194 
Q 291 463 197 991 
z
" transform="scale(0.015625)"/>
      <path id="ArialMT-20" transform="scale(0.015625)"/>
      <path id="ArialMT-69" d="M 425 3934 
L 425 4581 
L 988 4581 
L 988 3934 
L 425 3934 
z
M 425 0 
L 425 3319 
L 988 3319 
L 988 0 
L 425 0 
z
" transform="scale(0.015625)"/>
      <path id="ArialMT-6e" d="M 422 0 
L 422 3319 
L 928 3319 
L 928 2847 
Q 1294 3394 1984 3394 
Q 2284 3394 2536 3286 
Q 2788 3178 2913 3003 
Q 3038 2828 3088 2588 
Q 3119 2431 3119 2041 
L 3119 0 
L 2556 0 
L 2556 2019 
Q 2556 2363 2490 2533 
Q 2425 2703 2258 2804 
Q 2091 2906 1866 2906 
Q 1506 2906 1245 2678 
Q 984 2450 984 1813 
L 984 0 
L 422 0 
z
" transform="scale(0.015625)"/>
      <path id="ArialMT-74" d="M 1650 503 
L 1731 6 
Q 1494 -44 1306 -44 
Q 1000 -44 831 53 
Q 663 150 594 308 
Q 525 466 525 972 
L 525 2881 
L 113 2881 
L 113 3319 
L 525 3319 
L 525 4141 
L 1084 4478 
L 1084 3319 
L 1650 3319 
L 1650 2881 
L 1084 2881 
L 1084 941 
Q 1084 700 1114 631 
Q 1144 563 1211 522 
Q 1278 481 1403 481 
Q 1497 481 1650 503 
z
" transform="scale(0.015625)"/>
      <path id="ArialMT-68" d="M 422 0 
L 422 4581 
L 984 4581 
L 984 2938 
Q 1378 3394 1978 3394 
Q 2347 3394 2619 3248 
Q 2891 3103 3008 2847 
Q 3125 2591 3125 2103 
L 3125 0 
L 2563 0 
L 2563 2103 
Q 2563 2525 2380 2717 
Q 2197 2909 1863 2909 
Q 1613 2909 1392 2779 
Q 1172 2650 1078 2428 
Q 984 2206 984 1816 
L 984 0 
L 422 0 
z
" transform="scale(0.015625)"/>
      <path id="ArialMT-72" d="M 416 0 
L 416 3319 
L 922 3319 
L 922 2816 
Q 1116 3169 1280 3281 
Q 1444 3394 1641 3394 
Q 1925 3394 2219 3213 
L 2025 2691 
Q 1819 2813 1613 2813 
Q 1428 2813 1281 2702 
Q 1134 2591 1072 2394 
Q 978 2094 978 1738 
L 978 0 
L 416 0 
z
" transform="scale(0.015625)"/>
      <path id="ArialMT-77" d="M 1034 0 
L 19 3319 
L 600 3319 
L 1128 1403 
L 1325 691 
Q 1338 744 1497 1375 
L 2025 3319 
L 2603 3319 
L 3100 1394 
L 3266 759 
L 3456 1400 
L 4025 3319 
L 4572 3319 
L 3534 0 
L 2950 0 
L 2422 1988 
L 2294 2553 
L 1622 0 
L 1034 0 
z
" transform="scale(0.015625)"/>
      <path id="ArialMT-6f" d="M 213 1659 
Q 213 2581 725 3025 
Q 1153 3394 1769 3394 
Q 2453 3394 2887 2945 
Q 3322 2497 3322 1706 
Q 3322 1066 3130 698 
Q 2938 331 2570 128 
Q 2203 -75 1769 -75 
Q 1072 -75 642 372 
Q 213 819 213 1659 
z
M 791 1659 
Q 791 1022 1069 705 
Q 1347 388 1769 388 
Q 2188 388 2466 706 
Q 2744 1025 2744 1678 
Q 2744 2294 2464 2611 
Q 2184 2928 1769 2928 
Q 1347 2928 1069 2612 
Q 791 2297 791 1659 
z
" transform="scale(0.015625)"/>
      <path id="ArialMT-3a" d="M 578 2678 
L 578 3319 
L 1219 3319 
L 1219 2678 
L 578 2678 
z
M 578 0 
L 578 641 
L 1219 641 
L 1219 0 
L 578 0 
z
" transform="scale(0.015625)"/>
      <path id="ArialMT-36" d="M 3184 3459 
L 2625 3416 
Q 2550 3747 2413 3897 
Q 2184 4138 1850 4138 
Q 1581 4138 1378 3988 
Q 1113 3794 959 3422 
Q 806 3050 800 2363 
Q 1003 2672 1297 2822 
Q 1591 2972 1913 2972 
Q 2475 2972 2870 2558 
Q 3266 2144 3266 1488 
Q 3266 1056 3080 686 
Q 2894 316 2569 119 
Q 2244 -78 1831 -78 
Q 1128 -78 684 439 
Q 241 956 241 2144 
Q 241 3472 731 4075 
Q 1159 4600 1884 4600 
Q 2425 4600 2770 4297 
Q 3116 3994 3184 3459 
z
M 888 1484 
Q 888 1194 1011 928 
Q 1134 663 1356 523 
Q 1578 384 1822 384 
Q 2178 384 2434 671 
Q 2691 959 2691 1453 
Q 2691 1928 2437 2201 
Q 2184 2475 1800 2475 
Q 1419 2475 1153 2201 
Q 888 1928 888 1484 
z
" transform="scale(0.015625)"/>
      <path id="ArialMT-2e" d="M 581 0 
L 581 641 
L 1222 641 
L 1222 0 
L 581 0 
z
" transform="scale(0.015625)"/>
      <path id="ArialMT-25" d="M 372 3481 
Q 372 3972 619 4315 
Q 866 4659 1334 4659 
Q 1766 4659 2048 4351 
Q 2331 4044 2331 3447 
Q 2331 2866 2045 2552 
Q 1759 2238 1341 2238 
Q 925 2238 648 2547 
Q 372 2856 372 3481 
z
M 1350 4272 
Q 1141 4272 1002 4090 
Q 863 3909 863 3425 
Q 863 2984 1003 2804 
Q 1144 2625 1350 2625 
Q 1563 2625 1702 2806 
Q 1841 2988 1841 3469 
Q 1841 3913 1700 4092 
Q 1559 4272 1350 4272 
z
M 1353 -169 
L 3859 4659 
L 4316 4659 
L 1819 -169 
L 1353 -169 
z
M 3334 1075 
Q 3334 1569 3581 1911 
Q 3828 2253 4300 2253 
Q 4731 2253 5014 1945 
Q 5297 1638 5297 1041 
Q 5297 459 5011 145 
Q 4725 -169 4303 -169 
Q 3888 -169 3611 142 
Q 3334 453 3334 1075 
z
M 4316 1866 
Q 4103 1866 3964 1684 
Q 3825 1503 3825 1019 
Q 3825 581 3965 400 
Q 4106 219 4313 219 
Q 4528 219 4667 400 
Q 4806 581 4806 1063 
Q 4806 1506 4665 1686 
Q 4525 1866 4316 1866 
z
" transform="scale(0.015625)"/>
     </defs>
     <use xlink:href="#ArialMT-53"/>
     <use xlink:href="#ArialMT-61" transform="translate(66.699219 0)"/>
     <use xlink:href="#ArialMT-63" transform="translate(122.314453 0)"/>
     <use xlink:href="#ArialMT-63" transform="translate(172.314453 0)"/>
     <use xlink:href="#ArialMT-61" transform="translate(222.314453 0)"/>
     <use xlink:href="#ArialMT-64" transform="translate(277.929688 0)"/>
     <use xlink:href="#ArialMT-65" transform="translate(333.544922 0)"/>
     <use xlink:href="#ArialMT-73" transform="translate(389.160156 0)"/>
     <use xlink:href="#ArialMT-20" transform="translate(439.160156 0)"/>
     <use xlink:href="#ArialMT-69" transform="translate(466.943359 0)"/>
     <use xlink:href="#ArialMT-6e" transform="translate(489.160156 0)"/>
     <use xlink:href="#ArialMT-20" transform="translate(544.775391 0)"/>
     <use xlink:href="#ArialMT-74" transform="translate(572.558594 0)"/>
     <use xlink:href="#ArialMT-68" transform="translate(600.341797 0)"/>
     <use xlink:href="#ArialMT-65" transform="translate(655.957031 0)"/>
     <use xlink:href="#ArialMT-20" transform="translate(711.572266 0)"/>
     <use xlink:href="#ArialMT-72" transform="translate(739.355469 0)"/>
     <use xlink:href="#ArialMT-65" transform="translate(772.65625 0)"/>
     <use xlink:href="#ArialMT-77" transform="translate(828.271484 0)"/>
     <use xlink:href="#ArialMT-61" transform="translate(900.488281 0)"/>
     <use xlink:href="#ArialMT-72" transform="translate(956.103516 0)"/>
     <use xlink:href="#ArialMT-64" transform="translate(989.404297 0)"/>
     <use xlink:href="#ArialMT-65" transform="translate(1045.019531 0)"/>
     <use xlink:href="#ArialMT-64" transform="translate(1100.634766 0)"/>
     <use xlink:href="#ArialMT-20" transform="translate(1156.25 0)"/>
     <use xlink:href="#ArialMT-64" transform="translate(1184.033203 0)"/>
     <use xlink:href="#ArialMT-69" transform="translate(1239.648438 0)"/>
     <use xlink:href="#ArialMT-72" transform="translate(1261.865234 0)"/>
     <use xlink:href="#ArialMT-65" transform="translate(1295.166016 0)"/>
     <use xlink:href="#ArialMT-63" transform="translate(1350.78125 0)"/>
     <use xlink:href="#ArialMT-74" transform="translate(1400.78125 0)"/>
     <use xlink:href="#ArialMT-69" transform="translate(1428.564453 0)"/>
     <use xlink:href="#ArialMT-6f" transform="translate(1450.78125 0)"/>
     <use xlink:href="#ArialMT-6e" transform="translate(1506.396484 0)"/>
     <use xlink:href="#ArialMT-3a" transform="translate(1562.011719 0)"/>
     <use xlink:href="#ArialMT-20" transform="translate(1589.794922 0)"/>
     <use xlink:href="#ArialMT-36" transform="translate(1617.578125 0)"/>
     <use xlink:href="#ArialMT-30" transform="translate(1673.193359 0)"/>
     <use xlink:href="#ArialMT-2e" transform="translate(1728.808594 0)"/>
     <use xlink:href="#ArialMT-30" transform="translate(1756.591797 0)"/>
     <use xlink:href="#ArialMT-25" transform="translate(1812.207031 0)"/>
    </g>
   </g>
   <g id="legend_1">
    <g id="patch_22">
     <path d="M 206.648238 129.575763 
L 332.69155 129.575763 
Q 334.69075 129.575763 334.69075 127.576563 
L 334.69075 86.1572 
Q 334.69075 84.158 332.69155 84.158 
L 206.648238 84.158 
Q 204.649038 84.158 204.649038 86.1572 
L 204.649038 127.576563 
Q 204.649038 129.575763 206.648238 129.575763 
z
" style="fill: #ffffff; opacity: 0.8; stroke: #cccccc; stroke-linejoin: miter"/>
    </g>
    <g id="patch_23">
     <path d="M 208.647438 95.311349 
L 228.639438 95.311349 
L 228.639438 88.314149 
L 208.647438 88.314149 
z
" style="fill: #ffff00; fill-opacity: 0.15; stroke: #ffff00; stroke-opacity: 0.15; stroke-linejoin: miter"/>
    </g>
    <g id="text_6">
     <!-- Reward Zone -->
     <g transform="translate(236.636238 95.311349) scale(0.09996 -0.09996)">
      <defs>
       <path id="ArialMT-52" d="M 503 0 
L 503 4581 
L 2534 4581 
Q 3147 4581 3465 4457 
Q 3784 4334 3975 4021 
Q 4166 3709 4166 3331 
Q 4166 2844 3850 2509 
Q 3534 2175 2875 2084 
Q 3116 1969 3241 1856 
Q 3506 1613 3744 1247 
L 4541 0 
L 3778 0 
L 3172 953 
Q 2906 1366 2734 1584 
Q 2563 1803 2427 1890 
Q 2291 1978 2150 2013 
Q 2047 2034 1813 2034 
L 1109 2034 
L 1109 0 
L 503 0 
z
M 1109 2559 
L 2413 2559 
Q 2828 2559 3062 2645 
Q 3297 2731 3419 2920 
Q 3541 3109 3541 3331 
Q 3541 3656 3305 3865 
Q 3069 4075 2559 4075 
L 1109 4075 
L 1109 2559 
z
" transform="scale(0.015625)"/>
       <path id="ArialMT-5a" d="M 128 0 
L 128 563 
L 2475 3497 
Q 2725 3809 2950 4041 
L 394 4041 
L 394 4581 
L 3675 4581 
L 3675 4041 
L 1103 863 
L 825 541 
L 3750 541 
L 3750 0 
L 128 0 
z
" transform="scale(0.015625)"/>
      </defs>
      <use xlink:href="#ArialMT-52"/>
      <use xlink:href="#ArialMT-65" transform="translate(72.216797 0)"/>
      <use xlink:href="#ArialMT-77" transform="translate(127.832031 0)"/>
      <use xlink:href="#ArialMT-61" transform="translate(200.048828 0)"/>
      <use xlink:href="#ArialMT-72" transform="translate(255.664062 0)"/>
      <use xlink:href="#ArialMT-64" transform="translate(288.964844 0)"/>
      <use xlink:href="#ArialMT-20" transform="translate(344.580078 0)"/>
      <use xlink:href="#ArialMT-5a" transform="translate(372.363281 0)"/>
      <use xlink:href="#ArialMT-6f" transform="translate(433.447266 0)"/>
      <use xlink:href="#ArialMT-6e" transform="translate(489.0625 0)"/>
      <use xlink:href="#ArialMT-65" transform="translate(544.677734 0)"/>
     </g>
    </g>
    <g id="line2d_7">
     <path d="M 208.647438 105.952404 
L 218.643438 105.952404 
L 228.639438 105.952404 
" style="fill: none; stroke-dasharray: 3.7,1.6; stroke-dashoffset: 0; stroke: #000000"/>
    </g>
    <g id="text_7">
     <!-- Mean: 347.5° ± 85.5° -->
     <g transform="translate(236.636238 109.451004) scale(0.09996 -0.09996)">
      <defs>
       <path id="ArialMT-4d" d="M 475 0 
L 475 4581 
L 1388 4581 
L 2472 1338 
Q 2622 884 2691 659 
Q 2769 909 2934 1394 
L 4031 4581 
L 4847 4581 
L 4847 0 
L 4263 0 
L 4263 3834 
L 2931 0 
L 2384 0 
L 1059 3900 
L 1059 0 
L 475 0 
z
" transform="scale(0.015625)"/>
       <path id="ArialMT-33" d="M 269 1209 
L 831 1284 
Q 928 806 1161 595 
Q 1394 384 1728 384 
Q 2125 384 2398 659 
Q 2672 934 2672 1341 
Q 2672 1728 2419 1979 
Q 2166 2231 1775 2231 
Q 1616 2231 1378 2169 
L 1441 2663 
Q 1497 2656 1531 2656 
Q 1891 2656 2178 2843 
Q 2466 3031 2466 3422 
Q 2466 3731 2256 3934 
Q 2047 4138 1716 4138 
Q 1388 4138 1169 3931 
Q 950 3725 888 3313 
L 325 3413 
Q 428 3978 793 4289 
Q 1159 4600 1703 4600 
Q 2078 4600 2393 4439 
Q 2709 4278 2876 4000 
Q 3044 3722 3044 3409 
Q 3044 3113 2884 2869 
Q 2725 2625 2413 2481 
Q 2819 2388 3044 2092 
Q 3269 1797 3269 1353 
Q 3269 753 2831 336 
Q 2394 -81 1725 -81 
Q 1122 -81 723 278 
Q 325 638 269 1209 
z
" transform="scale(0.015625)"/>
       <path id="ArialMT-34" d="M 2069 0 
L 2069 1097 
L 81 1097 
L 81 1613 
L 2172 4581 
L 2631 4581 
L 2631 1613 
L 3250 1613 
L 3250 1097 
L 2631 1097 
L 2631 0 
L 2069 0 
z
M 2069 1613 
L 2069 3678 
L 634 1613 
L 2069 1613 
z
" transform="scale(0.015625)"/>
       <path id="ArialMT-35" d="M 266 1200 
L 856 1250 
Q 922 819 1161 601 
Q 1400 384 1738 384 
Q 2144 384 2425 690 
Q 2706 997 2706 1503 
Q 2706 1984 2436 2262 
Q 2166 2541 1728 2541 
Q 1456 2541 1237 2417 
Q 1019 2294 894 2097 
L 366 2166 
L 809 4519 
L 3088 4519 
L 3088 3981 
L 1259 3981 
L 1013 2750 
Q 1425 3038 1878 3038 
Q 2478 3038 2890 2622 
Q 3303 2206 3303 1553 
Q 3303 931 2941 478 
Q 2500 -78 1738 -78 
Q 1113 -78 717 272 
Q 322 622 266 1200 
z
" transform="scale(0.015625)"/>
       <path id="ArialMT-b1" d="M 1491 813 
L 1491 2072 
L 244 2072 
L 244 2594 
L 1491 2594 
L 1491 3841 
L 2022 3841 
L 2022 2594 
L 3269 2594 
L 3269 2072 
L 2022 2072 
L 2022 813 
L 1491 813 
z
M 3269 0 
L 244 0 
L 244 525 
L 3269 525 
L 3269 0 
z
" transform="scale(0.015625)"/>
      </defs>
      <use xlink:href="#ArialMT-4d"/>
      <use xlink:href="#ArialMT-65" transform="translate(83.300781 0)"/>
      <use xlink:href="#ArialMT-61" transform="translate(138.916016 0)"/>
      <use xlink:href="#ArialMT-6e" transform="translate(194.53125 0)"/>
      <use xlink:href="#ArialMT-3a" transform="translate(250.146484 0)"/>
      <use xlink:href="#ArialMT-20" transform="translate(277.929688 0)"/>
      <use xlink:href="#ArialMT-33" transform="translate(305.712891 0)"/>
      <use xlink:href="#ArialMT-34" transform="translate(361.328125 0)"/>
      <use xlink:href="#ArialMT-37" transform="translate(416.943359 0)"/>
      <use xlink:href="#ArialMT-2e" transform="translate(472.558594 0)"/>
      <use xlink:href="#ArialMT-35" transform="translate(500.341797 0)"/>
      <use xlink:href="#ArialMT-b0" transform="translate(555.957031 0)"/>
      <use xlink:href="#ArialMT-20" transform="translate(595.947266 0)"/>
      <use xlink:href="#ArialMT-b1" transform="translate(623.730469 0)"/>
      <use xlink:href="#ArialMT-20" transform="translate(678.613281 0)"/>
      <use xlink:href="#ArialMT-38" transform="translate(706.396484 0)"/>
      <use xlink:href="#ArialMT-35" transform="translate(762.011719 0)"/>
      <use xlink:href="#ArialMT-2e" transform="translate(817.626953 0)"/>
      <use xlink:href="#ArialMT-35" transform="translate(845.410156 0)"/>
      <use xlink:href="#ArialMT-b0" transform="translate(901.025391 0)"/>
     </g>
    </g>
    <g id="patch_24">
     <path d="M 208.647438 123.590658 
L 228.639438 123.590658 
L 228.639438 116.593458 
L 208.647438 116.593458 
z
" style="fill: #008000; opacity: 0.5"/>
    </g>
    <g id="text_8">
     <!-- Left Trials -->
     <g transform="translate(236.636238 123.590658) scale(0.09996 -0.09996)">
      <defs>
       <path id="ArialMT-4c" d="M 469 0 
L 469 4581 
L 1075 4581 
L 1075 541 
L 3331 541 
L 3331 0 
L 469 0 
z
" transform="scale(0.015625)"/>
       <path id="ArialMT-66" d="M 556 0 
L 556 2881 
L 59 2881 
L 59 3319 
L 556 3319 
L 556 3672 
Q 556 4006 616 4169 
Q 697 4388 901 4523 
Q 1106 4659 1475 4659 
Q 1713 4659 2000 4603 
L 1916 4113 
Q 1741 4144 1584 4144 
Q 1328 4144 1222 4034 
Q 1116 3925 1116 3625 
L 1116 3319 
L 1763 3319 
L 1763 2881 
L 1116 2881 
L 1116 0 
L 556 0 
z
" transform="scale(0.015625)"/>
       <path id="ArialMT-54" d="M 1659 0 
L 1659 4041 
L 150 4041 
L 150 4581 
L 3781 4581 
L 3781 4041 
L 2266 4041 
L 2266 0 
L 1659 0 
z
" transform="scale(0.015625)"/>
       <path id="ArialMT-6c" d="M 409 0 
L 409 4581 
L 972 4581 
L 972 0 
L 409 0 
z
" transform="scale(0.015625)"/>
      </defs>
      <use xlink:href="#ArialMT-4c"/>
      <use xlink:href="#ArialMT-65" transform="translate(55.615234 0)"/>
      <use xlink:href="#ArialMT-66" transform="translate(111.230469 0)"/>
      <use xlink:href="#ArialMT-74" transform="translate(139.013672 0)"/>
      <use xlink:href="#ArialMT-20" transform="translate(166.796875 0)"/>
      <use xlink:href="#ArialMT-54" transform="translate(192.830078 0)"/>
      <use xlink:href="#ArialMT-72" transform="translate(250.164062 0)"/>
      <use xlink:href="#ArialMT-69" transform="translate(283.464844 0)"/>
      <use xlink:href="#ArialMT-61" transform="translate(305.681641 0)"/>
      <use xlink:href="#ArialMT-6c" transform="translate(361.296875 0)"/>
      <use xlink:href="#ArialMT-73" transform="translate(383.513672 0)"/>
     </g>
    </g>
   </g>
  </g>
  <g id="axes_2">
   <g id="patch_25">
    <path d="M 871.112614 232.2 
C 871.112614 212.102971 867.153937 192.201361 859.463137 173.634128 
C 851.772337 155.066894 840.498981 138.195123 826.288235 123.984378 
C 812.07749 109.773633 795.20572 98.500276 776.638486 90.809476 
C 758.071253 83.118676 738.169642 79.16 718.072614 79.16 
C 697.975585 79.16 678.073975 83.118676 659.506741 90.809476 
C 640.939508 98.500276 624.067737 109.773633 609.856992 123.984378 
C 595.646247 138.195123 584.37289 155.066894 576.68209 173.634128 
C 568.99129 192.201361 565.032614 212.102971 565.032614 232.2 
C 565.032614 252.297029 568.99129 272.198639 576.68209 290.765872 
C 584.37289 309.333106 595.646247 326.204877 609.856992 340.415622 
C 624.067737 354.626367 640.939508 365.899724 659.506741 373.590524 
C 678.073975 381.281324 697.975585 385.24 718.072614 385.24 
C 738.169642 385.24 758.071253 381.281324 776.638486 373.590524 
C 795.20572 365.899724 812.07749 354.626367 826.288235 340.415622 
C 840.498981 326.204877 851.772337 309.333106 859.463137 290.765872 
C 867.153937 272.198639 871.112614 252.297029 871.112614 232.2 
M 718.072614 232.2 
C 718.072614 232.2 718.072614 232.2 718.072614 232.2 
C 718.072614 232.2 718.072614 232.2 718.072614 232.2 
C 718.072614 232.2 718.072614 232.2 718.072614 232.2 
C 718.072614 232.2 718.072614 232.2 718.072614 232.2 
C 718.072614 232.2 718.072614 232.2 718.072614 232.2 
C 718.072614 232.2 718.072614 232.2 718.072614 232.2 
C 718.072614 232.2 718.072614 232.2 718.072614 232.2 
C 718.072614 232.2 718.072614 232.2 718.072614 232.2 
C 718.072614 232.2 718.072614 232.2 718.072614 232.2 
C 718.072614 232.2 718.072614 232.2 718.072614 232.2 
C 718.072614 232.2 718.072614 232.2 718.072614 232.2 
C 718.072614 232.2 718.072614 232.2 718.072614 232.2 
C 718.072614 232.2 718.072614 232.2 718.072614 232.2 
C 718.072614 232.2 718.072614 232.2 718.072614 232.2 
C 718.072614 232.2 718.072614 232.2 718.072614 232.2 
C 718.072614 232.2 718.072614 232.2 718.072614 232.2 
z
" style="fill: #ffffff"/>
   </g>
   <g id="patch_26">
    <path d="M 718.072614 232.2 
C 718.072614 232.2 718.072614 232.2 718.072614 232.2 
C 718.072614 232.2 718.072614 232.2 718.072614 232.2 
L 590.241006 278.7269 
C 587.532464 271.285242 585.478907 263.621262 584.103744 255.822326 
C 582.728581 248.02339 582.037058 240.119247 582.037058 232.2 
z
" clip-path="url(#p53d771b224)" style="fill: #ffc0cb; opacity: 0.5"/>
   </g>
   <g id="patch_27">
    <path d="M 718.072614 232.2 
C 718.072614 232.2 718.072614 232.2 718.072614 232.2 
C 718.072614 232.2 718.072614 232.2 718.072614 232.2 
L 703.185573 244.69171 
C 702.458374 243.825068 701.808239 242.896578 701.242578 241.916825 
C 700.676918 240.937073 700.19789 239.909794 699.810955 238.8467 
z
" clip-path="url(#p53d771b224)" style="fill: #ffc0cb; opacity: 0.5"/>
   </g>
   <g id="patch_28">
    <path d="M 718.072614 232.2 
C 718.072614 232.2 718.072614 232.2 718.072614 232.2 
C 718.072614 232.2 718.072614 232.2 718.072614 232.2 
L 713.214201 240.615018 
C 712.724325 240.332187 712.26008 240.00712 711.826759 239.64352 
C 711.393438 239.279921 710.992693 238.879176 710.629094 238.445855 
z
" clip-path="url(#p53d771b224)" style="fill: #ffc0cb; opacity: 0.5"/>
   </g>
   <g id="patch_29">
    <path d="M 718.072614 232.2 
C 718.072614 232.2 718.072614 232.2 718.072614 232.2 
C 718.072614 232.2 718.072614 232.2 718.072614 232.2 
L 716.385305 241.769205 
C 715.828238 241.670979 715.280811 241.524296 714.749264 241.330829 
C 714.217717 241.137362 713.704077 240.897848 713.214201 240.615018 
z
" clip-path="url(#p53d771b224)" style="fill: #ffc0cb; opacity: 0.5"/>
   </g>
   <g id="patch_30">
    <path d="M 718.072614 232.2 
C 718.072614 232.2 718.072614 232.2 718.072614 232.2 
C 718.072614 232.2 718.072614 232.2 718.072614 232.2 
L 718.072614 232.2 
C 718.072614 232.2 718.072614 232.2 718.072614 232.2 
C 718.072614 232.2 718.072614 232.2 718.072614 232.2 
z
" clip-path="url(#p53d771b224)" style="fill: #ffc0cb; opacity: 0.5"/>
   </g>
   <g id="patch_31">
    <path d="M 718.072614 232.2 
C 718.072614 232.2 718.072614 232.2 718.072614 232.2 
C 718.072614 232.2 718.072614 232.2 718.072614 232.2 
L 718.072614 232.2 
C 718.072614 232.2 718.072614 232.2 718.072614 232.2 
C 718.072614 232.2 718.072614 232.2 718.072614 232.2 
z
" clip-path="url(#p53d771b224)" style="fill: #ffc0cb; opacity: 0.5"/>
   </g>
   <g id="patch_32">
    <path d="M 718.072614 232.2 
C 718.072614 232.2 718.072614 232.2 718.072614 232.2 
C 718.072614 232.2 718.072614 232.2 718.072614 232.2 
L 732.959654 244.69171 
C 732.232455 245.558352 731.430966 246.359841 730.564324 247.08704 
C 729.697681 247.814239 728.769192 248.464375 727.789439 249.030035 
z
" clip-path="url(#p53d771b224)" style="fill: #ffc0cb; opacity: 0.5"/>
   </g>
   <g id="patch_33">
    <path d="M 718.072614 232.2 
C 718.072614 232.2 718.072614 232.2 718.072614 232.2 
C 718.072614 232.2 718.072614 232.2 718.072614 232.2 
L 718.072614 232.2 
C 718.072614 232.2 718.072614 232.2 718.072614 232.2 
C 718.072614 232.2 718.072614 232.2 718.072614 232.2 
z
" clip-path="url(#p53d771b224)" style="fill: #ffc0cb; opacity: 0.5"/>
   </g>
   <g id="patch_34">
    <path d="M 718.072614 232.2 
C 718.072614 232.2 718.072614 232.2 718.072614 232.2 
C 718.072614 232.2 718.072614 232.2 718.072614 232.2 
L 844.391344 232.2 
C 844.391344 239.553586 843.749215 246.893148 842.472278 254.135017 
C 841.195342 261.376886 839.288467 268.493439 836.773392 275.40355 
z
" clip-path="url(#p53d771b224)" style="fill: #ffc0cb; opacity: 0.5"/>
   </g>
   <g id="patch_35">
    <path d="M 718.072614 232.2 
C 718.072614 232.2 718.072614 232.2 718.072614 232.2 
C 718.072614 232.2 718.072614 232.2 718.072614 232.2 
L 781.988417 208.93655 
C 783.342688 212.657379 784.369467 216.489369 785.057049 220.388837 
C 785.74463 224.288305 786.090391 228.240377 786.090391 232.2 
z
" clip-path="url(#p53d771b224)" style="fill: #ffc0cb; opacity: 0.5"/>
   </g>
   <g id="patch_36">
    <path d="M 718.072614 232.2 
C 718.072614 232.2 718.072614 232.2 718.072614 232.2 
C 718.072614 232.2 718.072614 232.2 718.072614 232.2 
L 718.072614 232.2 
C 718.072614 232.2 718.072614 232.2 718.072614 232.2 
C 718.072614 232.2 718.072614 232.2 718.072614 232.2 
z
" clip-path="url(#p53d771b224)" style="fill: #ffc0cb; opacity: 0.5"/>
   </g>
   <g id="patch_37">
    <path d="M 718.072614 232.2 
C 718.072614 232.2 718.072614 232.2 718.072614 232.2 
C 718.072614 232.2 718.072614 232.2 718.072614 232.2 
L 718.072614 232.2 
C 718.072614 232.2 718.072614 232.2 718.072614 232.2 
C 718.072614 232.2 718.072614 232.2 718.072614 232.2 
z
" clip-path="url(#p53d771b224)" style="fill: #ffc0cb; opacity: 0.5"/>
   </g>
   <g id="patch_38">
    <path d="M 718.072614 232.2 
C 718.072614 232.2 718.072614 232.2 718.072614 232.2 
C 718.072614 232.2 718.072614 232.2 718.072614 232.2 
L 718.072614 232.2 
C 718.072614 232.2 718.072614 232.2 718.072614 232.2 
C 718.072614 232.2 718.072614 232.2 718.072614 232.2 
z
" clip-path="url(#p53d771b224)" style="fill: #ffc0cb; opacity: 0.5"/>
   </g>
   <g id="patch_39">
    <path d="M 718.072614 232.2 
C 718.072614 232.2 718.072614 232.2 718.072614 232.2 
C 718.072614 232.2 718.072614 232.2 718.072614 232.2 
L 718.072614 232.2 
C 718.072614 232.2 718.072614 232.2 718.072614 232.2 
C 718.072614 232.2 718.072614 232.2 718.072614 232.2 
z
" clip-path="url(#p53d771b224)" style="fill: #ffc0cb; opacity: 0.5"/>
   </g>
   <g id="patch_40">
    <path d="M 718.072614 232.2 
C 718.072614 232.2 718.072614 232.2 718.072614 232.2 
C 718.072614 232.2 718.072614 232.2 718.072614 232.2 
L 718.072614 232.2 
C 718.072614 232.2 718.072614 232.2 718.072614 232.2 
C 718.072614 232.2 718.072614 232.2 718.072614 232.2 
z
" clip-path="url(#p53d771b224)" style="fill: #ffc0cb; opacity: 0.5"/>
   </g>
   <g id="patch_41">
    <path d="M 718.072614 232.2 
C 718.072614 232.2 718.072614 232.2 718.072614 232.2 
C 718.072614 232.2 718.072614 232.2 718.072614 232.2 
L 718.072614 232.2 
C 718.072614 232.2 718.072614 232.2 718.072614 232.2 
C 718.072614 232.2 718.072614 232.2 718.072614 232.2 
z
" clip-path="url(#p53d771b224)" style="fill: #ffc0cb; opacity: 0.5"/>
   </g>
   <g id="patch_42">
    <path d="M 718.072614 232.2 
C 718.072614 232.2 718.072614 232.2 718.072614 232.2 
C 718.072614 232.2 718.072614 232.2 718.072614 232.2 
L 699.810955 225.5533 
C 700.19789 224.490206 700.676918 223.462927 701.242578 222.483175 
C 701.808239 221.503422 702.458374 220.574932 703.185573 219.70829 
z
" clip-path="url(#p53d771b224)" style="fill: #ffc0cb; opacity: 0.5"/>
   </g>
   <g id="patch_43">
    <path d="M 718.072614 232.2 
C 718.072614 232.2 718.072614 232.2 718.072614 232.2 
C 718.072614 232.2 718.072614 232.2 718.072614 232.2 
L 572.320233 232.2 
C 572.320233 223.715093 573.06115 215.246367 574.534539 206.890365 
C 576.007928 198.534362 578.208168 190.322955 581.110177 182.34975 
z
" clip-path="url(#p53d771b224)" style="fill: #ffc0cb; opacity: 0.5"/>
   </g>
   <g id="FillBetweenPolyCollection_2">
    <defs>
     <path id="meb335abdcb" d="M 598.679253 -263.327319 
L 718.072614 -179.727187 
L 718.072614 -179.727187 
L 718.072614 -179.727187 
L 718.072614 -179.727187 
L 718.072614 -179.727187 
L 718.072614 -179.727187 
L 718.072614 -179.727187 
L 718.072614 -179.727187 
L 718.072614 -179.727187 
L 718.072614 -179.727187 
L 718.072614 -179.727187 
L 718.072614 -179.727187 
L 718.072614 -179.727187 
L 718.072614 -179.727187 
L 718.072614 -179.727187 
L 718.072614 -179.727187 
L 718.072614 -179.727187 
L 718.072614 -179.727187 
L 718.072614 -179.727187 
L 718.072614 -179.727187 
L 718.072614 -179.727187 
L 718.072614 -179.727187 
L 718.072614 -179.727187 
L 718.072614 -179.727187 
L 718.072614 -179.727187 
L 718.072614 -179.727187 
L 718.072614 -179.727187 
L 718.072614 -179.727187 
L 718.072614 -179.727187 
L 718.072614 -179.727187 
L 718.072614 -179.727187 
L 718.072614 -179.727187 
L 718.072614 -179.727187 
L 718.072614 -179.727187 
L 718.072614 -179.727187 
L 718.072614 -179.727187 
L 718.072614 -179.727187 
L 718.072614 -179.727187 
L 718.072614 -179.727187 
L 718.072614 -179.727187 
L 718.072614 -179.727187 
L 718.072614 -179.727187 
L 718.072614 -179.727187 
L 718.072614 -179.727187 
L 718.072614 -179.727187 
L 718.072614 -179.727187 
L 718.072614 -179.727187 
L 718.072614 -179.727187 
L 718.072614 -179.727187 
L 718.072614 -179.727187 
L 718.072614 -179.727187 
L 718.072614 -179.727187 
L 718.072614 -179.727187 
L 718.072614 -179.727187 
L 718.072614 -179.727187 
L 718.072614 -179.727187 
L 718.072614 -179.727187 
L 718.072614 -179.727187 
L 718.072614 -179.727187 
L 718.072614 -179.727187 
L 718.072614 -179.727187 
L 718.072614 -179.727187 
L 718.072614 -179.727187 
L 718.072614 -179.727187 
L 718.072614 -179.727187 
L 718.072614 -179.727187 
L 718.072614 -179.727187 
L 718.072614 -179.727187 
L 718.072614 -179.727187 
L 718.072614 -179.727187 
L 597.238414 -98.22349 
L 597.238414 -98.22349 
L 595.834382 -100.344751 
L 594.467584 -102.490193 
L 593.138439 -104.659162 
L 591.847349 -106.850997 
L 590.594709 -109.065031 
L 589.3809 -111.300589 
L 588.206291 -113.556991 
L 587.071241 -115.833549 
L 585.976096 -118.12957 
L 584.921188 -120.444353 
L 583.90684 -122.777195 
L 582.933359 -125.127385 
L 582.001044 -127.494206 
L 581.110177 -129.876937 
L 580.26103 -132.274854 
L 579.453862 -134.687225 
L 578.688919 -137.113315 
L 577.966433 -139.552387 
L 577.286625 -142.003695 
L 576.649701 -144.466495 
L 576.055857 -146.940036 
L 575.505272 -149.423564 
L 574.998114 -151.916322 
L 574.534539 -154.417552 
L 574.114686 -156.926492 
L 573.738685 -159.442377 
L 573.406649 -161.964441 
L 573.118679 -164.491915 
L 572.874864 -167.02403 
L 572.675278 -169.560015 
L 572.519981 -172.099097 
L 572.409021 -174.640503 
L 572.342431 -177.183458 
L 572.320233 -179.727187 
L 572.342431 -182.270917 
L 572.409021 -184.813872 
L 572.519981 -187.355278 
L 572.675278 -189.89436 
L 572.874864 -192.430345 
L 573.118679 -194.96246 
L 573.406649 -197.489934 
L 573.738685 -200.011998 
L 574.114686 -202.527883 
L 574.534539 -205.036823 
L 574.998114 -207.538053 
L 575.505272 -210.030811 
L 576.055857 -212.514339 
L 576.649701 -214.98788 
L 577.286625 -217.45068 
L 577.966433 -219.901988 
L 578.688919 -222.34106 
L 579.453862 -224.76715 
L 580.26103 -227.179521 
L 581.110177 -229.577438 
L 582.001044 -231.960169 
L 582.933359 -234.32699 
L 583.90684 -236.67718 
L 584.921188 -239.010022 
L 585.976096 -241.324805 
L 587.071241 -243.620826 
L 588.206291 -245.897384 
L 589.3809 -248.153786 
L 590.594709 -250.389344 
L 591.847349 -252.603378 
L 593.138439 -254.795213 
L 594.467584 -256.964182 
L 595.834382 -259.109624 
L 597.238414 -261.230885 
L 598.679253 -263.327319 
z
" style="stroke: #ffff00; stroke-opacity: 0.15"/>
    </defs>
    <g clip-path="url(#p53d771b224)">
     <use xlink:href="#meb335abdcb" x="0" y="411.927187" style="fill: #ffff00; fill-opacity: 0.15; stroke: #ffff00; stroke-opacity: 0.15"/>
    </g>
   </g>
   <g id="matplotlib.axis_3">
    <g id="xtick_5">
     <g id="line2d_8">
      <path d="M 718.072614 232.2 
L 871.112614 232.2 
" clip-path="url(#p53d771b224)" style="fill: none; stroke: #b0b0b0; stroke-width: 0.8; stroke-linecap: square"/>
     </g>
     <g id="text_9">
      <!-- 0° -->
      <g transform="translate(879.376989 235.302188) scale(0.12 -0.12)">
       <use xlink:href="#ArialMT-30"/>
       <use xlink:href="#ArialMT-b0" transform="translate(55.615234 0)"/>
      </g>
     </g>
    </g>
    <g id="xtick_6">
     <g id="line2d_9">
      <path d="M 718.072614 232.2 
L 718.072614 79.16 
" clip-path="url(#p53d771b224)" style="fill: none; stroke: #b0b0b0; stroke-width: 0.8; stroke-linecap: square"/>
     </g>
     <g id="text_10">
      <!-- 90° -->
      <g transform="translate(709.000426 68.262188) scale(0.12 -0.12)">
       <use xlink:href="#ArialMT-39"/>
       <use xlink:href="#ArialMT-30" transform="translate(55.615234 0)"/>
       <use xlink:href="#ArialMT-b0" transform="translate(111.230469 0)"/>
      </g>
     </g>
    </g>
    <g id="xtick_7">
     <g id="line2d_10">
      <path d="M 718.072614 232.2 
L 565.032614 232.2 
" clip-path="url(#p53d771b224)" style="fill: none; stroke: #b0b0b0; stroke-width: 0.8; stroke-linecap: square"/>
     </g>
     <g id="text_11">
      <!-- 180° -->
      <g transform="translate(538.623864 235.302187) scale(0.12 -0.12)">
       <use xlink:href="#ArialMT-31"/>
       <use xlink:href="#ArialMT-38" transform="translate(55.615234 0)"/>
       <use xlink:href="#ArialMT-30" transform="translate(111.230469 0)"/>
       <use xlink:href="#ArialMT-b0" transform="translate(166.845703 0)"/>
      </g>
     </g>
    </g>
    <g id="xtick_8">
     <g id="line2d_11">
      <path d="M 718.072614 232.2 
L 718.072614 385.24 
" clip-path="url(#p53d771b224)" style="fill: none; stroke: #b0b0b0; stroke-width: 0.8; stroke-linecap: square"/>
     </g>
     <g id="text_12">
      <!-- 270° -->
      <g transform="translate(705.663864 402.342187) scale(0.12 -0.12)">
       <use xlink:href="#ArialMT-32"/>
       <use xlink:href="#ArialMT-37" transform="translate(55.615234 0)"/>
       <use xlink:href="#ArialMT-30" transform="translate(111.230469 0)"/>
       <use xlink:href="#ArialMT-b0" transform="translate(166.845703 0)"/>
      </g>
     </g>
    </g>
   </g>
   <g id="matplotlib.axis_4">
    <g id="ytick_7"/>
    <g id="ytick_8"/>
    <g id="ytick_9"/>
    <g id="ytick_10"/>
    <g id="ytick_11"/>
   </g>
   <g id="line2d_12">
    <path d="M 718.072614 232.2 
L 580.714223 280.948632 
" clip-path="url(#p53d771b224)" style="fill: none; stroke-dasharray: 3.7,1.6; stroke-dashoffset: 0; stroke: #000000"/>
   </g>
   <g id="line2d_13">
    <path d="M 572.320233 232.2 
L 572.993865 236.78221 
L 575.089036 241.241089 
L 578.534839 245.456883 
L 583.21912 249.322481 
L 588.994436 252.748431 
L 595.685781 255.666704 
L 603.099505 258.03297 
L 611.032769 259.827306 
L 619.282873 261.053346 
L 627.655843 261.73608 
L 635.973771 261.918552 
L 644.080532 261.657805 
L 651.845698 261.020459 
L 659.166581 260.078261 
L 665.968552 258.90395 
L 672.203837 257.56766 
L 677.849127 256.134042 
L 682.902341 254.660179 
L 687.378903 253.194287 
L 694.72811 250.432132 
L 700.226993 248.048562 
L 705.853355 245.31969 
L 712.420682 241.871538 
L 714.067118 240.839219 
L 715.42193 239.707264 
L 716.515666 238.435255 
L 717.3235 237.157402 
L 718.308483 235.514599 
L 718.537593 235.644292 
L 719.277124 236.719066 
L 720.223638 237.99887 
L 721.527122 239.352718 
L 722.557819 240.160937 
L 723.692009 240.848128 
L 725.627624 241.717638 
L 738.590557 246.71482 
L 744.922128 248.75561 
L 748.766348 249.813519 
L 753.063881 250.836691 
L 757.790902 251.770655 
L 762.901233 252.556026 
L 768.325344 253.131639 
L 773.97067 253.438168 
L 779.723398 253.422019 
L 785.451751 253.039196 
L 791.010692 252.258839 
L 796.24785 251.066137 
L 801.010328 249.46435 
L 805.151995 247.475709 
L 808.540761 245.141102 
L 811.065347 242.518505 
L 812.641057 239.680254 
L 813.214145 236.709341 
L 812.76447 233.695015 
L 811.30627 230.728008 
L 808.887013 227.895748 
L 805.584479 225.277913 
L 801.502292 222.942615 
L 796.764278 220.943476 
L 791.50807 219.317746 
L 785.878409 218.085516 
L 780.020578 217.250012 
L 774.074365 216.798853 
L 768.168872 216.706098 
L 762.418401 216.934871 
L 756.919527 217.440323 
L 751.749412 218.172691 
L 746.965287 219.080256 
L 742.604972 220.112009 
L 738.68827 221.2199 
L 735.219003 222.360589 
L 732.187488 223.496664 
L 727.347675 225.638629 
L 723.923282 227.480037 
L 721.6161 228.951563 
L 719.620778 230.484224 
L 718.390842 231.710254 
L 718.073054 232.193816 
L 718.030631 232.051923 
L 717.664931 231.388828 
L 716.625058 230.047401 
L 714.717116 228.107198 
L 712.476486 226.191496 
L 709.086829 223.697489 
L 706.843971 222.227927 
L 704.169857 220.617073 
L 701.015656 218.878462 
L 697.335571 217.03339 
L 693.089448 215.111686 
L 688.245746 213.152186 
L 682.784784 211.202805 
L 676.702113 209.320105 
L 670.011834 207.56828 
L 662.749641 206.017481 
L 654.975313 204.741479 
L 646.774387 203.814675 
L 638.258717 203.308564 
L 629.565691 203.287802 
L 620.855909 203.806088 
L 612.309236 204.902154 
L 604.119251 206.596153 
L 596.486257 208.886781 
L 589.609152 211.749428 
L 583.676598 215.135606 
L 578.858022 218.973821 
L 575.295061 223.171938 
L 573.094064 227.620955 
L 572.320233 232.2 
L 572.320233 232.2 
" clip-path="url(#p53d771b224)" style="fill: none; stroke: #800080; stroke-width: 2; stroke-linecap: square"/>
   </g>
   <g id="patch_44">
    <path d="M 871.112614 232.2 
C 871.112614 212.102971 867.153937 192.201361 859.463137 173.634128 
C 851.772337 155.066894 840.498981 138.195123 826.288235 123.984378 
C 812.07749 109.773633 795.20572 98.500276 776.638486 90.809476 
C 758.071253 83.118676 738.169642 79.16 718.072614 79.16 
C 697.975585 79.16 678.073975 83.118676 659.506741 90.809476 
C 640.939508 98.500276 624.067737 109.773633 609.856992 123.984378 
C 595.646247 138.195123 584.37289 155.066894 576.68209 173.634128 
C 568.99129 192.201361 565.032614 212.102971 565.032614 232.2 
C 565.032614 252.297029 568.99129 272.198639 576.68209 290.765872 
C 584.37289 309.333106 595.646247 326.204877 609.856992 340.415622 
C 624.067737 354.626367 640.939508 365.899724 659.506741 373.590524 
C 678.073975 381.281324 697.975585 385.24 718.072614 385.24 
C 738.169642 385.24 758.071253 381.281324 776.638486 373.590524 
C 795.20572 365.899724 812.07749 354.626367 826.288235 340.415622 
C 840.498981 326.204877 851.772337 309.333106 859.463137 290.765872 
C 867.153937 272.198639 871.112614 252.297029 871.112614 232.2 
" style="fill: none; stroke: #000000; stroke-width: 0.8; stroke-linejoin: miter; stroke-linecap: square"/>
   </g>
   <g id="text_13">
    <!-- Saccades in the rewarded direction: 57.9% -->
    <g transform="translate(623.060634 319.902318) scale(0.09996 -0.09996)">
     <use xlink:href="#ArialMT-53"/>
     <use xlink:href="#ArialMT-61" transform="translate(66.699219 0)"/>
     <use xlink:href="#ArialMT-63" transform="translate(122.314453 0)"/>
     <use xlink:href="#ArialMT-63" transform="translate(172.314453 0)"/>
     <use xlink:href="#ArialMT-61" transform="translate(222.314453 0)"/>
     <use xlink:href="#ArialMT-64" transform="translate(277.929688 0)"/>
     <use xlink:href="#ArialMT-65" transform="translate(333.544922 0)"/>
     <use xlink:href="#ArialMT-73" transform="translate(389.160156 0)"/>
     <use xlink:href="#ArialMT-20" transform="translate(439.160156 0)"/>
     <use xlink:href="#ArialMT-69" transform="translate(466.943359 0)"/>
     <use xlink:href="#ArialMT-6e" transform="translate(489.160156 0)"/>
     <use xlink:href="#ArialMT-20" transform="translate(544.775391 0)"/>
     <use xlink:href="#ArialMT-74" transform="translate(572.558594 0)"/>
     <use xlink:href="#ArialMT-68" transform="translate(600.341797 0)"/>
     <use xlink:href="#ArialMT-65" transform="translate(655.957031 0)"/>
     <use xlink:href="#ArialMT-20" transform="translate(711.572266 0)"/>
     <use xlink:href="#ArialMT-72" transform="translate(739.355469 0)"/>
     <use xlink:href="#ArialMT-65" transform="translate(772.65625 0)"/>
     <use xlink:href="#ArialMT-77" transform="translate(828.271484 0)"/>
     <use xlink:href="#ArialMT-61" transform="translate(900.488281 0)"/>
     <use xlink:href="#ArialMT-72" transform="translate(956.103516 0)"/>
     <use xlink:href="#ArialMT-64" transform="translate(989.404297 0)"/>
     <use xlink:href="#ArialMT-65" transform="translate(1045.019531 0)"/>
     <use xlink:href="#ArialMT-64" transform="translate(1100.634766 0)"/>
     <use xlink:href="#ArialMT-20" transform="translate(1156.25 0)"/>
     <use xlink:href="#ArialMT-64" transform="translate(1184.033203 0)"/>
     <use xlink:href="#ArialMT-69" transform="translate(1239.648438 0)"/>
     <use xlink:href="#ArialMT-72" transform="translate(1261.865234 0)"/>
     <use xlink:href="#ArialMT-65" transform="translate(1295.166016 0)"/>
     <use xlink:href="#ArialMT-63" transform="translate(1350.78125 0)"/>
     <use xlink:href="#ArialMT-74" transform="translate(1400.78125 0)"/>
     <use xlink:href="#ArialMT-69" transform="translate(1428.564453 0)"/>
     <use xlink:href="#ArialMT-6f" transform="translate(1450.78125 0)"/>
     <use xlink:href="#ArialMT-6e" transform="translate(1506.396484 0)"/>
     <use xlink:href="#ArialMT-3a" transform="translate(1562.011719 0)"/>
     <use xlink:href="#ArialMT-20" transform="translate(1589.794922 0)"/>
     <use xlink:href="#ArialMT-35" transform="translate(1617.578125 0)"/>
     <use xlink:href="#ArialMT-37" transform="translate(1673.193359 0)"/>
     <use xlink:href="#ArialMT-2e" transform="translate(1728.808594 0)"/>
     <use xlink:href="#ArialMT-39" transform="translate(1756.591797 0)"/>
     <use xlink:href="#ArialMT-25" transform="translate(1812.207031 0)"/>
    </g>
   </g>
   <g id="legend_2">
    <g id="patch_45">
     <path d="M 738.072101 129.692904 
L 864.115414 129.692904 
Q 866.114614 129.692904 866.114614 127.693704 
L 866.114614 86.1572 
Q 866.114614 84.158 864.115414 84.158 
L 738.072101 84.158 
Q 736.072901 84.158 736.072901 86.1572 
L 736.072901 127.693704 
Q 736.072901 129.692904 738.072101 129.692904 
z
" style="fill: #ffffff; opacity: 0.8; stroke: #cccccc; stroke-linejoin: miter"/>
    </g>
    <g id="patch_46">
     <path d="M 740.071301 95.311349 
L 760.063301 95.311349 
L 760.063301 88.314149 
L 740.071301 88.314149 
z
" style="fill: #ffff00; fill-opacity: 0.15; stroke: #ffff00; stroke-opacity: 0.15; stroke-linejoin: miter"/>
    </g>
    <g id="text_14">
     <!-- Reward Zone -->
     <g transform="translate(768.060101 95.311349) scale(0.09996 -0.09996)">
      <use xlink:href="#ArialMT-52"/>
      <use xlink:href="#ArialMT-65" transform="translate(72.216797 0)"/>
      <use xlink:href="#ArialMT-77" transform="translate(127.832031 0)"/>
      <use xlink:href="#ArialMT-61" transform="translate(200.048828 0)"/>
      <use xlink:href="#ArialMT-72" transform="translate(255.664062 0)"/>
      <use xlink:href="#ArialMT-64" transform="translate(288.964844 0)"/>
      <use xlink:href="#ArialMT-20" transform="translate(344.580078 0)"/>
      <use xlink:href="#ArialMT-5a" transform="translate(372.363281 0)"/>
      <use xlink:href="#ArialMT-6f" transform="translate(433.447266 0)"/>
      <use xlink:href="#ArialMT-6e" transform="translate(489.0625 0)"/>
      <use xlink:href="#ArialMT-65" transform="translate(544.677734 0)"/>
     </g>
    </g>
    <g id="line2d_14">
     <path d="M 740.071301 105.952404 
L 750.067301 105.952404 
L 760.063301 105.952404 
" style="fill: none; stroke-dasharray: 3.7,1.6; stroke-dashoffset: 0; stroke: #000000"/>
    </g>
    <g id="text_15">
     <!-- Mean: 199.5° ± 98.2° -->
     <g transform="translate(768.060101 109.451004) scale(0.09996 -0.09996)">
      <use xlink:href="#ArialMT-4d"/>
      <use xlink:href="#ArialMT-65" transform="translate(83.300781 0)"/>
      <use xlink:href="#ArialMT-61" transform="translate(138.916016 0)"/>
      <use xlink:href="#ArialMT-6e" transform="translate(194.53125 0)"/>
      <use xlink:href="#ArialMT-3a" transform="translate(250.146484 0)"/>
      <use xlink:href="#ArialMT-20" transform="translate(277.929688 0)"/>
      <use xlink:href="#ArialMT-31" transform="translate(305.712891 0)"/>
      <use xlink:href="#ArialMT-39" transform="translate(361.328125 0)"/>
      <use xlink:href="#ArialMT-39" transform="translate(416.943359 0)"/>
      <use xlink:href="#ArialMT-2e" transform="translate(472.558594 0)"/>
      <use xlink:href="#ArialMT-35" transform="translate(500.341797 0)"/>
      <use xlink:href="#ArialMT-b0" transform="translate(555.957031 0)"/>
      <use xlink:href="#ArialMT-20" transform="translate(595.947266 0)"/>
      <use xlink:href="#ArialMT-b1" transform="translate(623.730469 0)"/>
      <use xlink:href="#ArialMT-20" transform="translate(678.613281 0)"/>
      <use xlink:href="#ArialMT-39" transform="translate(706.396484 0)"/>
      <use xlink:href="#ArialMT-38" transform="translate(762.011719 0)"/>
      <use xlink:href="#ArialMT-2e" transform="translate(817.626953 0)"/>
      <use xlink:href="#ArialMT-32" transform="translate(845.410156 0)"/>
      <use xlink:href="#ArialMT-b0" transform="translate(901.025391 0)"/>
     </g>
    </g>
    <g id="patch_47">
     <path d="M 740.071301 123.590658 
L 760.063301 123.590658 
L 760.063301 116.593458 
L 740.071301 116.593458 
z
" style="fill: #ffc0cb; opacity: 0.5"/>
    </g>
    <g id="text_16">
     <!-- Right Trials -->
     <g transform="translate(768.060101 123.590658) scale(0.09996 -0.09996)">
      <defs>
       <path id="ArialMT-67" d="M 319 -275 
L 866 -356 
Q 900 -609 1056 -725 
Q 1266 -881 1628 -881 
Q 2019 -881 2231 -725 
Q 2444 -569 2519 -288 
Q 2563 -116 2559 434 
Q 2191 0 1641 0 
Q 956 0 581 494 
Q 206 988 206 1678 
Q 206 2153 378 2554 
Q 550 2956 876 3175 
Q 1203 3394 1644 3394 
Q 2231 3394 2613 2919 
L 2613 3319 
L 3131 3319 
L 3131 450 
Q 3131 -325 2973 -648 
Q 2816 -972 2473 -1159 
Q 2131 -1347 1631 -1347 
Q 1038 -1347 672 -1080 
Q 306 -813 319 -275 
z
M 784 1719 
Q 784 1066 1043 766 
Q 1303 466 1694 466 
Q 2081 466 2343 764 
Q 2606 1063 2606 1700 
Q 2606 2309 2336 2618 
Q 2066 2928 1684 2928 
Q 1309 2928 1046 2623 
Q 784 2319 784 1719 
z
" transform="scale(0.015625)"/>
      </defs>
      <use xlink:href="#ArialMT-52"/>
      <use xlink:href="#ArialMT-69" transform="translate(72.216797 0)"/>
      <use xlink:href="#ArialMT-67" transform="translate(94.433594 0)"/>
      <use xlink:href="#ArialMT-68" transform="translate(150.048828 0)"/>
      <use xlink:href="#ArialMT-74" transform="translate(205.664062 0)"/>
      <use xlink:href="#ArialMT-20" transform="translate(233.447266 0)"/>
      <use xlink:href="#ArialMT-54" transform="translate(259.480469 0)"/>
      <use xlink:href="#ArialMT-72" transform="translate(316.814453 0)"/>
      <use xlink:href="#ArialMT-69" transform="translate(350.115234 0)"/>
      <use xlink:href="#ArialMT-61" transform="translate(372.332031 0)"/>
      <use xlink:href="#ArialMT-6c" transform="translate(427.947266 0)"/>
      <use xlink:href="#ArialMT-73" transform="translate(450.164062 0)"/>
     </g>
    </g>
   </g>
  </g>
  <g id="text_17">
   <!-- Apollo_Tsh002_2025-11-03T11_58_17 | prosaccade -->
   <g transform="translate(284.608818 17.68275) scale(0.144 -0.144)">
    <defs>
     <path id="ArialMT-41" d="M -9 0 
L 1750 4581 
L 2403 4581 
L 4278 0 
L 3588 0 
L 3053 1388 
L 1138 1388 
L 634 0 
L -9 0 
z
M 1313 1881 
L 2866 1881 
L 2388 3150 
Q 2169 3728 2063 4100 
Q 1975 3659 1816 3225 
L 1313 1881 
z
" transform="scale(0.015625)"/>
     <path id="ArialMT-70" d="M 422 -1272 
L 422 3319 
L 934 3319 
L 934 2888 
Q 1116 3141 1344 3267 
Q 1572 3394 1897 3394 
Q 2322 3394 2647 3175 
Q 2972 2956 3137 2557 
Q 3303 2159 3303 1684 
Q 3303 1175 3120 767 
Q 2938 359 2589 142 
Q 2241 -75 1856 -75 
Q 1575 -75 1351 44 
Q 1128 163 984 344 
L 984 -1272 
L 422 -1272 
z
M 931 1641 
Q 931 1000 1190 694 
Q 1450 388 1819 388 
Q 2194 388 2461 705 
Q 2728 1022 2728 1688 
Q 2728 2322 2467 2637 
Q 2206 2953 1844 2953 
Q 1484 2953 1207 2617 
Q 931 2281 931 1641 
z
" transform="scale(0.015625)"/>
     <path id="ArialMT-5f" d="M -97 -1272 
L -97 -866 
L 3631 -866 
L 3631 -1272 
L -97 -1272 
z
" transform="scale(0.015625)"/>
     <path id="ArialMT-2d" d="M 203 1375 
L 203 1941 
L 1931 1941 
L 1931 1375 
L 203 1375 
z
" transform="scale(0.015625)"/>
     <path id="ArialMT-7c" d="M 588 -1347 
L 588 4659 
L 1078 4659 
L 1078 -1347 
L 588 -1347 
z
" transform="scale(0.015625)"/>
    </defs>
    <use xlink:href="#ArialMT-41"/>
    <use xlink:href="#ArialMT-70" transform="translate(66.699219 0)"/>
    <use xlink:href="#ArialMT-6f" transform="translate(122.314453 0)"/>
    <use xlink:href="#ArialMT-6c" transform="translate(177.929688 0)"/>
    <use xlink:href="#ArialMT-6c" transform="translate(200.146484 0)"/>
    <use xlink:href="#ArialMT-6f" transform="translate(222.363281 0)"/>
    <use xlink:href="#ArialMT-5f" transform="translate(277.978516 0)"/>
    <use xlink:href="#ArialMT-54" transform="translate(333.59375 0)"/>
    <use xlink:href="#ArialMT-73" transform="translate(383.552734 0)"/>
    <use xlink:href="#ArialMT-68" transform="translate(433.552734 0)"/>
    <use xlink:href="#ArialMT-30" transform="translate(489.167969 0)"/>
    <use xlink:href="#ArialMT-30" transform="translate(544.783203 0)"/>
    <use xlink:href="#ArialMT-32" transform="translate(600.398438 0)"/>
    <use xlink:href="#ArialMT-5f" transform="translate(656.013672 0)"/>
    <use xlink:href="#ArialMT-32" transform="translate(711.628906 0)"/>
    <use xlink:href="#ArialMT-30" transform="translate(767.244141 0)"/>
    <use xlink:href="#ArialMT-32" transform="translate(822.859375 0)"/>
    <use xlink:href="#ArialMT-35" transform="translate(878.474609 0)"/>
    <use xlink:href="#ArialMT-2d" transform="translate(934.089844 0)"/>
    <use xlink:href="#ArialMT-31" transform="translate(967.390625 0)"/>
    <use xlink:href="#ArialMT-31" transform="translate(1015.630859 0)"/>
    <use xlink:href="#ArialMT-2d" transform="translate(1071.246094 0)"/>
    <use xlink:href="#ArialMT-30" transform="translate(1104.546875 0)"/>
    <use xlink:href="#ArialMT-33" transform="translate(1160.162109 0)"/>
    <use xlink:href="#ArialMT-54" transform="translate(1215.777344 0)"/>
    <use xlink:href="#ArialMT-31" transform="translate(1276.861328 0)"/>
    <use xlink:href="#ArialMT-31" transform="translate(1325.101562 0)"/>
    <use xlink:href="#ArialMT-5f" transform="translate(1380.716797 0)"/>
    <use xlink:href="#ArialMT-35" transform="translate(1436.332031 0)"/>
    <use xlink:href="#ArialMT-38" transform="translate(1491.947266 0)"/>
    <use xlink:href="#ArialMT-5f" transform="translate(1547.5625 0)"/>
    <use xlink:href="#ArialMT-31" transform="translate(1603.177734 0)"/>
    <use xlink:href="#ArialMT-37" transform="translate(1658.792969 0)"/>
    <use xlink:href="#ArialMT-20" transform="translate(1714.408203 0)"/>
    <use xlink:href="#ArialMT-7c" transform="translate(1742.191406 0)"/>
    <use xlink:href="#ArialMT-20" transform="translate(1768.167969 0)"/>
    <use xlink:href="#ArialMT-70" transform="translate(1795.951172 0)"/>
    <use xlink:href="#ArialMT-72" transform="translate(1851.566406 0)"/>
    <use xlink:href="#ArialMT-6f" transform="translate(1884.867188 0)"/>
    <use xlink:href="#ArialMT-73" transform="translate(1940.482422 0)"/>
    <use xlink:href="#ArialMT-61" transform="translate(1990.482422 0)"/>
    <use xlink:href="#ArialMT-63" transform="translate(2046.097656 0)"/>
    <use xlink:href="#ArialMT-63" transform="translate(2096.097656 0)"/>
    <use xlink:href="#ArialMT-61" transform="translate(2146.097656 0)"/>
    <use xlink:href="#ArialMT-64" transform="translate(2201.712891 0)"/>
    <use xlink:href="#ArialMT-65" transform="translate(2257.328125 0)"/>
   </g>
  </g>
 </g>
 <defs>
  <clipPath id="p685ed1441b">
   <path d="M 339.68875 232.2 
C 339.68875 212.102971 335.730074 192.201361 328.039274 173.634128 
C 320.348474 155.066894 309.075117 138.195123 294.864372 123.984378 
C 280.653627 109.773633 263.781856 98.500276 245.214622 90.809476 
C 226.647389 83.118676 206.745779 79.16 186.64875 79.16 
C 166.551721 79.16 146.650111 83.118676 128.082878 90.809476 
C 109.515644 98.500276 92.643873 109.773633 78.433128 123.984378 
C 64.222383 138.195123 52.949026 155.066894 45.258226 173.634128 
C 37.567426 192.201361 33.60875 212.102971 33.60875 232.2 
C 33.60875 252.297029 37.567426 272.198639 45.258226 290.765872 
C 52.949026 309.333106 64.222383 326.204877 78.433128 340.415622 
C 92.643873 354.626367 109.515644 365.899724 128.082878 373.590524 
C 146.650111 381.281324 166.551721 385.24 186.64875 385.24 
C 206.745779 385.24 226.647389 381.281324 245.214622 373.590524 
C 263.781856 365.899724 280.653627 354.626367 294.864372 340.415622 
C 309.075117 326.204877 320.348474 309.333106 328.039274 290.765872 
C 335.730074 272.198639 339.68875 252.297029 339.68875 232.2 
M 186.64875 232.2 
C 186.64875 232.2 186.64875 232.2 186.64875 232.2 
C 186.64875 232.2 186.64875 232.2 186.64875 232.2 
C 186.64875 232.2 186.64875 232.2 186.64875 232.2 
C 186.64875 232.2 186.64875 232.2 186.64875 232.2 
C 186.64875 232.2 186.64875 232.2 186.64875 232.2 
C 186.64875 232.2 186.64875 232.2 186.64875 232.2 
C 186.64875 232.2 186.64875 232.2 186.64875 232.2 
C 186.64875 232.2 186.64875 232.2 186.64875 232.2 
C 186.64875 232.2 186.64875 232.2 186.64875 232.2 
C 186.64875 232.2 186.64875 232.2 186.64875 232.2 
C 186.64875 232.2 186.64875 232.2 186.64875 232.2 
C 186.64875 232.2 186.64875 232.2 186.64875 232.2 
C 186.64875 232.2 186.64875 232.2 186.64875 232.2 
C 186.64875 232.2 186.64875 232.2 186.64875 232.2 
C 186.64875 232.2 186.64875 232.2 186.64875 232.2 
C 186.64875 232.2 186.64875 232.2 186.64875 232.2 
z
"/>
  </clipPath>
  <clipPath id="p53d771b224">
   <path d="M 871.112614 232.2 
C 871.112614 212.102971 867.153937 192.201361 859.463137 173.634128 
C 851.772337 155.066894 840.498981 138.195123 826.288235 123.984378 
C 812.07749 109.773633 795.20572 98.500276 776.638486 90.809476 
C 758.071253 83.118676 738.169642 79.16 718.072614 79.16 
C 697.975585 79.16 678.073975 83.118676 659.506741 90.809476 
C 640.939508 98.500276 624.067737 109.773633 609.856992 123.984378 
C 595.646247 138.195123 584.37289 155.066894 576.68209 173.634128 
C 568.99129 192.201361 565.032614 212.102971 565.032614 232.2 
C 565.032614 252.297029 568.99129 272.198639 576.68209 290.765872 
C 584.37289 309.333106 595.646247 326.204877 609.856992 340.415622 
C 624.067737 354.626367 640.939508 365.899724 659.506741 373.590524 
C 678.073975 381.281324 697.975585 385.24 718.072614 385.24 
C 738.169642 385.24 758.071253 381.281324 776.638486 373.590524 
C 795.20572 365.899724 812.07749 354.626367 826.288235 340.415622 
C 840.498981 326.204877 851.772337 309.333106 859.463137 290.765872 
C 867.153937 272.198639 871.112614 252.297029 871.112614 232.2 
M 718.072614 232.2 
C 718.072614 232.2 718.072614 232.2 718.072614 232.2 
C 718.072614 232.2 718.072614 232.2 718.072614 232.2 
C 718.072614 232.2 718.072614 232.2 718.072614 232.2 
C 718.072614 232.2 718.072614 232.2 718.072614 232.2 
C 718.072614 232.2 718.072614 232.2 718.072614 232.2 
C 718.072614 232.2 718.072614 232.2 718.072614 232.2 
C 718.072614 232.2 718.072614 232.2 718.072614 232.2 
C 718.072614 232.2 718.072614 232.2 718.072614 232.2 
C 718.072614 232.2 718.072614 232.2 718.072614 232.2 
C 718.072614 232.2 718.072614 232.2 718.072614 232.2 
C 718.072614 232.2 718.072614 232.2 718.072614 232.2 
C 718.072614 232.2 718.072614 232.2 718.072614 232.2 
C 718.072614 232.2 718.072614 232.2 718.072614 232.2 
C 718.072614 232.2 718.072614 232.2 718.072614 232.2 
C 718.072614 232.2 718.072614 232.2 718.072614 232.2 
C 718.072614 232.2 718.072614 232.2 718.072614 232.2 
z
"/>
  </clipPath>
 </defs>
</svg>
